<svg width="745" height="181" viewBox="0 0 745 181" fill="none" xmlns="http://www.w3.org/2000/svg">
<g clip-path="url(#clip0_2647_31381)">
<path d="M286.097 44.0464V61.2988H275.623V53.1361H249.696V61.2988H239.168V44.0464H240.621C243.014 44.0049 244.702 42.3724 245.684 39.1212C246.667 35.8837 247.275 31.2075 247.511 25.12L247.967 12.627H280.604V44.0464H286.097ZM256.462 37.1012C255.922 40.1173 255.092 42.4277 253.972 44.0464H269.301V21.7028H257.665L257.486 26.1023C257.333 30.4189 256.988 34.0852 256.448 37.1012H256.462Z" fill="white"/>
<path d="M334.239 50.0665C332.15 51.2563 329.632 52.2109 326.657 52.9027C323.683 53.5945 320.598 53.9403 317.402 53.9403C313.085 53.9403 309.405 53.4146 306.375 52.377C303.345 51.3393 301.076 49.8867 299.541 48.0328C298.019 46.1788 297.258 44.0344 297.258 41.6133C297.258 39.4965 297.839 37.6149 299.001 35.9962C300.163 34.3775 301.754 33.1185 303.802 32.2331C302.225 31.4168 301.007 30.2962 300.191 28.8435C299.361 27.3908 298.946 25.7998 298.946 24.0704C298.946 21.8291 299.651 19.7815 301.062 17.9414C302.474 16.0875 304.618 14.6072 307.51 13.4865C310.401 12.3659 313.971 11.8125 318.218 11.8125C320.874 11.8125 323.503 12.0615 326.09 12.5596C328.677 13.0577 330.946 13.7356 332.925 14.5795L329.798 23.1434C326.215 21.5662 322.507 20.7638 318.688 20.7638C315.949 20.7638 313.901 21.1235 312.559 21.8291C311.204 22.5485 310.54 23.5308 310.54 24.8036C310.54 27.1141 312.214 28.2763 315.575 28.2763H327.031V37.02H314.815C312.85 37.02 311.356 37.3382 310.36 37.9746C309.35 38.6111 308.852 39.5518 308.852 40.7832C308.852 42.0975 309.585 43.1213 311.051 43.8546C312.518 44.5878 314.787 44.9614 317.886 44.9614C320.086 44.9614 322.355 44.657 324.679 44.0621C327.017 43.4672 329.051 42.6509 330.78 41.5994L334.253 50.0527L334.239 50.0665Z" fill="white"/>
<path d="M385.757 12.6113V53.1205H374.302V37.3208H358.682V53.1205H347.227V12.6113H358.682V27.8299H374.302V12.6113H385.757Z" fill="white"/>
<path d="M435.164 21.701H422.782V53.1205H411.492V21.701H399.055V12.6113H435.164V21.701Z" fill="white"/>
<path d="M485.058 53.1205L485.002 31.6484L474.585 49.1221H469.493L459.075 32.105V53.1066H448.547V12.6113H457.982L472.219 35.9926L486.109 12.6113H495.545L495.655 53.1205H485.071H485.058Z" fill="white"/>
<path d="M539.165 45.2659H522.037L518.855 53.138H507.164L525.053 12.6289H536.342L554.286 53.138H542.361L539.178 45.2659H539.165ZM535.803 36.8126L530.601 23.8492L525.399 36.8126H535.817H535.803Z" fill="white"/>
<path d="M573.581 51.2425C570.205 49.4439 567.549 46.9536 565.626 43.7439C563.703 40.548 562.734 36.9093 562.734 32.8695C562.734 28.8297 563.703 25.191 565.626 21.9951C567.549 18.7992 570.205 16.2951 573.581 14.4965C576.957 12.6979 580.762 11.8125 585.009 11.8125C588.717 11.8125 592.051 12.4627 595.025 13.7771C598 15.0914 600.463 16.9868 602.427 19.4495L595.136 26.0488C592.507 22.8806 589.325 21.3034 585.59 21.3034C583.39 21.3034 581.439 21.7876 579.71 22.7561C577.994 23.7245 576.666 25.0803 575.712 26.8374C574.771 28.5945 574.3 30.6144 574.3 32.8833C574.3 35.1523 574.771 37.1722 575.712 38.9293C576.652 40.6863 577.994 42.0422 579.71 43.0106C581.426 43.9791 583.39 44.4633 585.59 44.4633C589.325 44.4633 592.521 42.8861 595.136 39.7179L602.427 46.3172C600.463 48.7798 597.986 50.6753 595.025 51.9896C592.051 53.3039 588.717 53.9542 585.009 53.9542C580.762 53.9542 576.957 53.0549 573.581 51.2563V51.2425Z" fill="white"/>
<path d="M647.969 21.701H635.587V53.1205H624.297V21.701H611.859V12.6113H647.969V21.701Z" fill="white"/>
<path d="M695.825 50.0665C693.736 51.2563 691.218 52.2109 688.243 52.9027C685.269 53.5945 682.184 53.9403 678.988 53.9403C674.671 53.9403 670.991 53.4146 667.961 52.377C664.931 51.3393 662.662 49.8867 661.127 48.0328C659.605 46.1788 658.844 44.0344 658.844 41.6133C658.844 39.4965 659.425 37.6149 660.587 35.9962C661.749 34.3775 663.34 33.1185 665.388 32.2331C663.811 31.4168 662.593 30.2962 661.777 28.8435C660.947 27.3908 660.532 25.7998 660.532 24.0704C660.532 21.8291 661.237 19.7815 662.648 17.9414C664.06 16.0875 666.204 14.6072 669.096 13.4865C671.987 12.3659 675.557 11.8125 679.804 11.8125C682.46 11.8125 685.089 12.0615 687.676 12.5596C690.263 13.0577 692.532 13.7356 694.511 14.5795L691.384 23.1434C687.801 21.5662 684.093 20.7638 680.274 20.7638C677.535 20.7638 675.487 21.1235 674.145 21.8291C672.79 22.5485 672.125 23.5308 672.125 24.8036C672.125 27.1141 673.799 28.2763 677.161 28.2763H688.617V37.02H676.4C674.436 37.02 672.942 37.3382 671.946 37.9746C670.936 38.6111 670.438 39.5518 670.438 40.7832C670.438 42.0975 671.171 43.1213 672.637 43.8546C674.104 44.5878 676.373 44.9614 679.472 44.9614C681.672 44.9614 683.941 44.657 686.265 44.0621C688.603 43.4672 690.637 42.6509 692.366 41.5994L695.839 50.0527L695.825 50.0665Z" fill="white"/>
<path d="M735.69 14.4376C738.388 15.655 740.477 17.3844 741.944 19.6396C743.41 21.8947 744.144 24.551 744.144 27.5947C744.144 30.6385 743.41 33.281 741.944 35.5222C740.477 37.7635 738.388 39.4929 735.69 40.6966C732.993 41.914 729.81 42.5228 726.144 42.5228H719.088V53.1205H707.633V12.6113H726.158C729.824 12.6113 733.006 13.2201 735.704 14.4376H735.69ZM730.779 31.9666C731.969 30.9428 732.578 29.4901 732.578 27.5947C732.578 25.6993 731.983 24.2328 730.779 23.1952C729.589 22.1575 727.804 21.6318 725.452 21.6318H719.088V33.5023H725.452C727.804 33.5023 729.575 32.9904 730.779 31.9666Z" fill="white"/>
<path d="M375.786 180.436V162.838H382.426V161.302H367.54V162.838H374.208V180.436H375.799H375.786ZM353.359 180.408C353.981 180.63 354.507 180.796 355.489 180.796C357.288 180.796 358.326 179.592 359.474 177.06L366.488 161.33H364.773L359.225 173.726L353.622 161.33H351.906L358.353 175.621L357.731 177.046C357.025 178.61 356.527 179.288 355.24 179.288C354.562 179.288 353.898 179.149 353.359 178.9V180.436V180.408ZM343.84 180.436V162.838H350.481V161.302H335.595V162.838H342.263V180.436H343.854H343.84ZM318.301 180.436L330.462 164.18H330.489V180.436H332.081V161.316H330.628L318.411 177.655H318.384V161.316H316.793V180.436H318.301ZM306.638 180.436V162.838H313.279V161.302H298.392V162.838H305.061V180.436H306.652H306.638ZM295.501 176.396C294.103 177.959 292.028 179.26 289.302 179.26C284.709 179.26 281.14 175.414 281.14 170.876C281.14 166.338 284.723 162.492 289.302 162.492C292.028 162.492 294.186 163.889 295.473 165.383L296.621 164.18C294.823 162.215 292.111 160.956 289.302 160.956C283.838 160.956 279.521 165.356 279.521 170.876C279.521 176.396 283.838 180.796 289.302 180.796C292.028 180.796 294.823 179.564 296.566 177.572L295.501 176.396ZM261.978 180.436V171.526H273.503V180.436H275.094V161.316H273.503V170.004H261.978V161.316H260.387V180.436H261.978ZM240.672 180.436L252.833 164.18H252.861V180.436H254.452V161.316H252.999L240.783 177.655H240.755V161.316H239.164V180.436H240.672ZM692.83 142.196L704.991 125.94H705.019V142.196H706.61V123.076H705.157L692.941 139.415H692.913V123.076H691.336V142.196H692.844H692.83ZM694.933 117.265C695.639 119.202 696.704 120.572 698.973 120.572C701.242 120.572 702.307 119.202 703.013 117.265L701.809 116.67C701.159 118.206 700.633 119.188 698.973 119.188C697.313 119.188 696.787 118.206 696.165 116.67L694.933 117.265ZM671.594 142.196L683.755 125.94H683.782V142.196H685.373V123.076H683.921L671.704 139.415H671.677V123.076H670.085V142.196H671.594ZM653.981 142.196V135.154L656.845 132.207L664.385 142.21H666.35L657.966 131.059L665.727 123.076H663.541L653.981 132.885V123.076H652.39V142.196H653.981ZM647.064 138.156C645.667 139.719 643.591 141.02 640.866 141.02C636.273 141.02 632.703 137.174 632.703 132.636C632.703 128.098 636.286 124.252 640.866 124.252C643.591 124.252 645.75 125.649 647.036 127.143L648.185 125.94C646.386 123.975 643.674 122.716 640.866 122.716C635.401 122.716 631.084 127.116 631.084 132.636C631.084 138.156 635.401 142.555 640.866 142.555C643.591 142.555 646.386 141.324 648.129 139.332L647.064 138.156ZM627.792 142.196V140.66H616.433V133.286H627.114V131.75H616.433V124.598H627.639V123.062H614.856V142.182H627.805L627.792 142.196ZM608.879 142.196V123.076H607.288V132.746C605.835 132.94 602.971 133.078 600.813 133.078C597.341 133.078 596.497 131.059 596.497 128.568V123.076H594.906V128.568C594.906 133.161 597.576 134.6 600.62 134.6C603.11 134.6 605.918 134.434 607.288 134.268V142.196H608.879ZM575.744 142.196L587.905 125.94H587.933V142.196H589.524V123.076H588.071L575.855 139.415H575.827V123.076H574.25V142.196H575.758H575.744ZM560.401 142.196V124.598H570.722V123.062H558.81V142.182H560.401V142.196ZM544.574 141.02C539.98 141.02 536.411 137.174 536.411 132.636C536.411 128.098 539.994 124.252 544.574 124.252C549.153 124.252 552.736 128.098 552.736 132.636C552.736 137.174 549.181 141.02 544.574 141.02ZM544.574 142.555C550.038 142.555 554.355 138.156 554.355 132.636C554.355 127.116 550.038 122.716 544.574 122.716C539.109 122.716 534.82 127.116 534.82 132.636C534.82 138.156 539.109 142.555 544.574 142.555ZM516.475 142.196L523.849 125.663H523.876L531.223 142.196H533.021L524.499 123.076H523.185L514.662 142.196H516.461H516.475ZM503.11 141.02C498.517 141.02 494.947 137.174 494.947 132.636C494.947 128.098 498.53 124.252 503.11 124.252C507.689 124.252 511.273 128.098 511.273 132.636C511.273 137.174 507.717 141.02 503.11 141.02ZM503.11 142.555C508.575 142.555 512.891 138.156 512.891 132.636C512.891 127.116 508.575 122.716 503.11 122.716C497.645 122.716 493.356 127.116 493.356 132.636C493.356 138.156 497.645 142.555 503.11 142.555ZM484.681 142.196V124.598H491.322V123.062H476.436V124.598H483.104V142.196H484.695H484.681ZM467.581 125.677H467.609L472.009 135.513H463.182L467.581 125.677ZM460.207 142.196L462.476 137.118H472.714L474.983 142.196H476.782L468.259 123.076H466.945L458.423 142.196H460.193H460.207ZM438.569 142.196V126.161H438.597L445.833 138.156H446.192L453.428 126.161H453.456V142.196H455.033V123.076H453.428L446.054 135.334H445.971L438.569 123.076H436.978V142.196H438.569ZM422.756 141.02C418.162 141.02 414.593 137.174 414.593 132.636C414.593 128.098 418.176 124.252 422.756 124.252C427.335 124.252 430.918 128.098 430.918 132.636C430.918 137.174 427.363 141.02 422.756 141.02ZM422.756 142.555C428.221 142.555 432.537 138.156 432.537 132.636C432.537 127.116 428.221 122.716 422.756 122.716C417.291 122.716 413.002 127.116 413.002 132.636C413.002 138.156 417.291 142.555 422.756 142.555ZM404.313 142.196V124.598H410.954V123.062H396.068V124.598H402.736V142.196H404.327H404.313ZM393.162 138.156C391.765 139.719 389.69 141.02 386.964 141.02C382.371 141.02 378.802 137.174 378.802 132.636C378.802 128.098 382.385 124.252 386.964 124.252C389.69 124.252 391.848 125.649 393.135 127.143L394.283 125.94C392.484 123.975 389.773 122.716 386.964 122.716C381.499 122.716 377.183 127.116 377.183 132.636C377.183 138.156 381.499 142.555 386.964 142.555C389.69 142.555 392.485 141.324 394.228 139.332L393.162 138.156ZM372.41 133.286V131.75H363.265V133.286H372.41ZM348.696 141.02C344.103 141.02 340.534 137.174 340.534 132.636C340.534 128.098 344.117 124.252 348.696 124.252C353.276 124.252 356.859 128.098 356.859 132.636C356.859 137.174 353.304 141.02 348.696 141.02ZM348.696 142.555C354.161 142.555 358.478 138.156 358.478 132.636C358.478 127.116 354.161 122.716 348.696 122.716C343.232 122.716 338.943 127.116 338.943 132.636C338.943 138.156 343.232 142.555 348.696 142.555ZM324.471 142.196V135.154L327.335 132.207L334.875 142.21H336.84L328.456 131.059L336.217 123.076H334.031L324.471 132.885V123.076H322.88V142.196H324.471ZM303.58 142.196L315.741 125.94H315.769V142.196H317.36V123.076H315.907L303.691 139.415H303.663V123.076H302.072V142.196H303.58ZM288.528 125.566H288.555L295.169 140.674H281.859L288.528 125.566ZM280.254 146.18V142.196H296.787V146.18H298.378V140.66H296.926L289.219 123.062H287.905L280.116 140.66H278.691V146.18H280.254ZM276.131 142.196V140.66H264.773V133.286H275.454V131.75H264.773V124.598H275.979V123.062H263.196V142.182H276.145L276.131 142.196ZM240.755 142.196V126.161H240.783L248.019 138.156H248.378L255.614 126.161H255.642V142.196H257.233V123.076H255.628L248.254 135.334H248.171L240.769 123.076H239.178V142.196H240.769H240.755ZM481.624 103.956L493.785 87.6994H493.813V103.956H495.404V84.8355H493.951L481.735 101.175H481.707V84.8355H480.116V103.956H481.624ZM483.727 79.0109C484.432 80.9478 485.498 82.3175 487.767 82.3175C490.036 82.3175 491.101 80.9478 491.807 79.0109L490.603 78.416C489.953 79.9517 489.427 80.934 487.767 80.934C486.107 80.934 485.581 79.9517 484.958 78.416L483.727 79.0109ZM460.401 103.956L472.562 87.6994H472.59V103.956H474.181V84.8355H472.728L460.512 101.175H460.484V84.8355H458.907V103.956H460.415H460.401ZM442.789 103.956V96.9135L445.653 93.9666L453.193 103.969H455.157L446.773 92.8183L454.535 84.8355H452.349L442.789 94.6446V84.8355H441.198V103.956H442.789ZM435.871 99.9157C434.474 101.479 432.399 102.78 429.673 102.78C425.08 102.78 421.511 98.9334 421.511 94.3955C421.511 89.8576 425.094 86.0115 429.673 86.0115C432.399 86.0115 434.557 87.4088 435.844 88.903L436.992 87.6994C435.193 85.7348 432.482 84.4758 429.673 84.4758C424.208 84.4758 419.892 88.8753 419.892 94.3955C419.892 99.9157 424.208 104.315 429.673 104.315C432.399 104.315 435.193 103.084 436.937 101.092L435.871 99.9157ZM405.171 86.3573H410.055C414.261 86.3573 415.216 88.6263 415.216 90.8122C415.216 92.9982 414.261 95.3502 410.055 95.3502H405.171V86.3573ZM405.171 103.956V96.8858H410.276C413.638 96.8858 416.834 95.2533 416.834 90.8261C416.834 86.3989 413.638 84.8493 410.276 84.8493H403.58V103.969H405.171V103.956ZM383.865 103.956L396.026 87.6994H396.054V103.956H397.645V84.8355H396.192L383.976 101.175H383.948V84.8355H382.357V103.956H383.865ZM366.225 93.4409H371.137C375.315 93.4409 376.27 95.7652 376.27 97.9788C376.27 100.192 375.315 102.434 371.137 102.434H366.225V93.4409ZM371.331 103.956C374.693 103.956 377.888 102.392 377.888 97.9788C377.888 93.5654 374.693 91.9191 371.331 91.9191H366.225V86.3712H376.602V84.8355H364.634V103.956H371.331ZM344.919 103.956L357.081 87.6994H357.108V103.956H358.699V84.8355H357.247L345.03 101.175H345.002V84.8355H343.411V103.956H344.919ZM338.085 99.9157C336.688 101.479 334.612 102.78 331.887 102.78C327.294 102.78 323.724 98.9334 323.724 94.3955C323.724 89.8576 327.307 86.0115 331.887 86.0115C334.612 86.0115 336.771 87.4088 338.057 88.903L339.206 87.6994C337.407 85.7348 334.695 84.4758 331.887 84.4758C326.422 84.4758 322.105 88.8753 322.105 94.3955C322.105 99.9157 326.422 104.315 331.887 104.315C334.612 104.315 337.407 103.084 339.15 101.092L338.085 99.9157ZM309.377 102.78C304.784 102.78 301.214 98.9334 301.214 94.3955C301.214 89.8576 304.798 86.0115 309.377 86.0115C313.957 86.0115 317.54 89.8576 317.54 94.3955C317.54 98.9334 313.984 102.78 309.377 102.78ZM309.377 104.315C314.842 104.315 319.159 99.9157 319.159 94.3955C319.159 88.8753 314.842 84.4758 309.377 84.4758C303.912 84.4758 299.623 88.8753 299.623 94.3955C299.623 99.9157 303.912 104.315 309.377 104.315ZM283.893 95.0458H289.897C292.651 95.0458 294.781 96.4431 294.781 98.8643C294.781 101.05 293.218 102.42 289.593 102.42H283.879V95.0458H283.893ZM283.893 86.3573H288.943C292.056 86.3573 294.103 87.4503 294.103 90.0236C294.103 92.431 292.194 93.5239 289.731 93.5239H283.879V86.3712L283.893 86.3573ZM289.759 103.956C293.37 103.956 296.4 102.503 296.4 98.9611C296.4 95.4193 293.342 94.5062 292.388 94.2572V94.2295C293.536 93.8975 295.722 92.8322 295.722 89.9406C295.722 86.1222 292.194 84.8355 289.081 84.8355H282.302V103.956H289.759ZM268.066 102.78C263.472 102.78 259.903 98.9334 259.903 94.3955C259.903 89.8576 263.486 86.0115 268.066 86.0115C272.645 86.0115 276.228 89.8576 276.228 94.3955C276.228 98.9334 272.673 102.78 268.066 102.78ZM268.066 104.315C273.53 104.315 277.847 99.9157 277.847 94.3955C277.847 88.8753 273.53 84.4758 268.066 84.4758C262.601 84.4758 258.312 88.8753 258.312 94.3955C258.312 99.9157 262.601 104.315 268.066 104.315ZM240.755 103.956V95.0458H252.28V103.956H253.871V84.8355H252.28V93.5239H240.755V84.8355H239.164V103.956H240.755Z" fill="white"/>
<path fill-rule="evenodd" clip-rule="evenodd" d="M192.239 39.2916L176.854 12.5623L147.233 29.6209L130.188 0L103.459 15.3846L120.504 45.0055L96.1262 59.0482V59.0343L96.1124 59.0482L71.7349 45.0055L88.7936 15.3846L62.0642 0L45.0055 29.6209L15.3846 12.5623L0 39.2916L29.6209 56.3503L12.5623 85.9574L39.2916 101.356L56.3503 71.7349L80.8384 85.7775V113.89H46.5966V144.729H80.8384V178.902H96.1262H111.4V144.729H145.642V113.89H111.4V85.7775L135.902 71.7349L152.947 101.356L179.676 85.9574L162.631 56.3503L192.239 39.2916Z" fill="white"/>
</g>
<defs>
<clipPath id="clip0_2647_31381">
<rect width="744.162" height="180.797" fill="white"/>
</clipPath>
</defs>
</svg>
