<svg width="17" height="12" viewBox="0 0 17 12" fill="none" xmlns="http://www.w3.org/2000/svg">
<path fill-rule="evenodd" clip-rule="evenodd" d="M4.64319 2.67025C3.573 3.36045 2.65767 4.24117 1.98643 4.98622C1.49027 5.53693 1.49027 6.46314 1.98643 7.01385C2.65767 7.7589 3.573 8.63962 4.64319 9.32982C5.71558 10.0214 6.89936 10.4937 8.12305 10.4937C9.34674 10.4937 10.5305 10.0214 11.6029 9.32982C12.6731 8.63962 13.5884 7.7589 14.2597 7.01385C14.7558 6.46314 14.7558 5.53692 14.2597 4.98622C13.5884 4.24117 12.6731 3.36045 11.6029 2.67025C10.5305 1.97862 9.34674 1.5064 8.12305 1.5064C6.89936 1.5064 5.71558 1.97862 4.64319 2.67025ZM3.83493 1.41702C5.0516 0.63234 6.516 0.0151367 8.12305 0.0151367C9.73009 0.0151367 11.1945 0.63234 12.4112 1.41702C13.63 2.20311 14.6446 3.18558 15.3676 3.98804C16.3749 5.10606 16.3749 6.89401 15.3676 8.01203C14.6446 8.81449 13.63 9.79695 12.4112 10.5831C11.1945 11.3677 9.73009 11.9849 8.12305 11.9849C6.516 11.9849 5.0516 11.3677 3.83493 10.5831C2.61606 9.79696 1.60146 8.81449 0.878497 8.01203C-0.128769 6.89401 -0.12877 5.10606 0.878497 3.98804C1.60146 3.18558 2.61606 2.20311 3.83493 1.41702Z" fill="white"/>
<path fill-rule="evenodd" clip-rule="evenodd" d="M8.12175 4.32679C7.19806 4.32679 6.44926 5.07559 6.44926 5.99928C6.44926 6.92297 7.19806 7.67177 8.12175 7.67177C9.04544 7.67177 9.79424 6.92297 9.79424 5.99928C9.79424 5.07559 9.04544 4.32679 8.12175 4.32679ZM4.958 5.99928C4.958 4.25199 6.37446 2.83553 8.12175 2.83553C9.86905 2.83553 11.2855 4.25199 11.2855 5.99928C11.2855 7.74657 9.86905 9.16303 8.12175 9.16303C6.37446 9.16303 4.958 7.74657 4.958 5.99928Z" fill="white"/>
</svg>
