<svg width="20" height="21" viewBox="0 0 20 21" fill="none" xmlns="http://www.w3.org/2000/svg">
<path fill-rule="evenodd" clip-rule="evenodd" d="M15.8824 4.83634C14.9077 4.83634 14.1176 5.62643 14.1176 6.60105C14.1176 7.57567 14.9077 8.36575 15.8824 8.36575C16.857 8.36575 17.6471 7.57567 17.6471 6.60105C17.6471 5.62643 16.857 4.83634 15.8824 4.83634ZM11.9352 5.42458C12.4414 3.7237 14.017 2.4834 15.8824 2.4834C18.1565 2.4834 20 4.32693 20 6.60105C20 8.87516 18.1565 10.7187 15.8824 10.7187C14.017 10.7187 12.4414 9.47839 11.9352 7.77752L0 7.77752L2.10369e-07 5.42458L11.9352 5.42458ZM4.11765 12.6795C3.14303 12.6795 2.35294 13.4696 2.35294 14.4442C2.35294 15.4188 3.14303 16.2089 4.11765 16.2089C5.09227 16.2089 5.88235 15.4188 5.88235 14.4442C5.88235 13.4696 5.09227 12.6795 4.11765 12.6795ZM1.40246e-07 14.4442C1.40246e-07 12.1701 1.84353 10.3265 4.11765 10.3265C5.98295 10.3265 7.55857 11.5668 8.06478 13.2677L20 13.2677V15.6207L8.06478 15.6207C7.55857 17.3215 5.98295 18.5618 4.11765 18.5618C1.84353 18.5618 1.40246e-07 16.7183 1.40246e-07 14.4442Z" fill="#535353"/>
</svg>
