<svg width="133" height="36" viewBox="0 0 133 36" fill="none" xmlns="http://www.w3.org/2000/svg">
<g clip-path="url(#clip0_4010_30240)">
<path d="M22.3995 13.2484C22.3995 14.77 22.3423 16.6189 21.07 17.7406V17.7354C20.1196 18.5768 18.5876 18.7741 17.3568 18.7741H16.2662V7.8109H17.4398C18.6239 7.8109 20.1508 8.03941 21.07 8.84958C22.3372 9.97134 22.3995 11.7267 22.3995 13.2484Z" fill="white"/>
<path fill-rule="evenodd" clip-rule="evenodd" d="M18.1349 0.488281C27.8049 0.488281 35.6468 8.33027 35.6468 18.0003C35.6468 27.6704 27.8049 35.5124 18.1349 35.5124C8.46497 35.5124 0.623047 27.6704 0.623047 18.0003C0.623047 8.33027 8.46497 0.488281 18.1349 0.488281ZM29.0568 26.2421C28.6724 26.7459 28.257 27.2289 27.8104 27.6755C25.3383 30.1476 21.9159 31.6744 18.1352 31.6744V31.6796C14.3544 31.6744 10.932 30.1424 8.46002 27.6703C8.01859 27.2289 7.61351 26.7615 7.23439 26.2681L10.1582 24.0401C10.4335 24.4037 10.7347 24.7464 11.0567 25.0736C12.8743 26.8913 15.3775 28.0131 18.1352 28.0131V28.0079C20.8928 28.0131 23.396 26.8913 25.2137 25.0736C25.5461 24.7412 25.8525 24.3881 26.1329 24.0142L29.0568 26.2421ZM17.3256 22.2381C19.351 22.2381 21.5478 21.9005 23.2304 20.6697V20.6645C25.7492 18.8209 26.0556 15.9333 26.0556 13.1549C26.0556 10.3764 25.6868 7.71221 23.2304 5.9153C21.5166 4.6637 19.3094 4.35212 17.2477 4.35212H12.6204V22.2381H17.3256Z" fill="white"/>
<path d="M91.1461 18.167H87.4121V19.5432H91.1461V18.167Z" fill="white"/>
<path fill-rule="evenodd" clip-rule="evenodd" d="M107.797 17.0035V20.8414C108.223 20.9556 108.716 20.9972 109.183 21.0076C110.471 20.9868 110.627 19.9689 110.627 18.9562C110.627 17.9435 110.508 17.0606 109.308 16.9204C108.841 16.8684 108.311 16.91 107.797 17.0087M106.213 16.0115C107.142 15.6428 108.119 15.4766 109.116 15.5233C109.921 15.5597 110.674 15.7207 111.219 16.1102C112.175 16.7905 112.237 17.8863 112.237 18.9562C112.237 20.026 112.097 21.0855 111.261 21.7658C110.819 22.1293 110.072 22.3838 109.407 22.389C108.799 22.3994 108.269 22.4098 107.797 22.202V24.5858H106.213V16.0167V16.0115Z" fill="white"/>
<path fill-rule="evenodd" clip-rule="evenodd" d="M98.8658 22.0197C98.1647 22.3053 97.2974 22.3884 96.5547 22.3884C95.6303 22.3936 94.6228 22.1859 93.9269 21.6769C92.7844 20.8408 92.6805 19.4334 92.6857 18.2233C92.6857 17.0133 92.8156 15.6578 93.9269 14.8424C94.6228 14.3335 95.6303 14.1258 96.5547 14.131C97.261 14.1361 98.0245 14.2556 98.684 14.5309L98.253 15.8708C97.7648 15.6371 97.0949 15.5072 96.5547 15.5124C95.9835 15.5124 95.2668 15.6578 94.8669 16.0162C94.2593 16.5667 94.2541 17.5742 94.2541 18.2597C94.2541 18.9452 94.2541 19.9579 94.8669 20.5032C95.2668 20.8616 95.9835 21.007 96.5547 21.007C97.1208 21.007 97.931 20.9395 98.4451 20.685L98.8658 22.0145V22.0197Z" fill="white"/>
<path fill-rule="evenodd" clip-rule="evenodd" d="M65.8223 15.6846H71.7219V17.1387H69.5666V22.249H67.9775V17.1387H65.8223V15.6846Z" fill="white"/>
<path fill-rule="evenodd" clip-rule="evenodd" d="M53.5936 18.5823C53.5832 18.1357 53.6299 17.5904 53.9727 17.2632C54.2531 16.9984 54.6946 16.9153 55.0945 16.9101C55.3386 16.9049 55.6398 16.9153 55.8994 17.0088C56.2162 17.123 56.4655 17.3463 56.4707 17.7047C56.4863 18.4837 55.619 18.5512 55.0633 18.5979C54.5855 18.6187 54.0818 18.5979 53.5936 18.5875M53.0535 21.797C53.7286 22.2904 54.5699 22.3995 55.3749 22.3891C56.0396 22.3891 57.0783 22.2956 57.7171 22.1242L57.4678 20.7895C56.8862 20.9349 55.9773 21.0336 55.4061 21.0232C54.9283 21.0129 54.3518 20.9817 53.9779 20.6285C53.7079 20.3741 53.6248 20.0729 53.6092 19.7924C54.1285 19.9119 54.9698 19.9638 55.2606 19.9378C56.0916 19.8599 56.8342 19.782 57.5197 19.1432C57.9041 18.7849 58.0962 18.1617 58.065 17.6423C58.0391 17.149 57.8106 16.6193 57.4522 16.2817C56.8446 15.7052 55.9929 15.5027 55.1724 15.5131C54.4297 15.5235 53.6663 15.6585 53.0535 16.1051C52.0979 16.8114 51.9629 17.8813 51.9629 18.9511C51.9629 20.0209 52.0979 21.0907 53.0535 21.7918V21.797Z" fill="white"/>
<path fill-rule="evenodd" clip-rule="evenodd" d="M59.0684 15.6846H60.6523V18.1722H63.4204V15.6846H65.0043V22.249H63.4204V19.6263H60.6523V22.249H59.0684V15.6846Z" fill="white"/>
<path fill-rule="evenodd" clip-rule="evenodd" d="M76.5999 19.2626C76.5999 19.7145 76.6051 20.1195 76.6051 20.5298C75.9923 20.8518 75.1614 21.044 74.5953 21.0336C74.1383 21.0232 73.7072 20.8051 73.6813 20.2338C73.6657 19.8806 73.8267 19.6054 74.1642 19.4392C74.8238 19.1224 75.9923 19.2367 76.5947 19.2626M77.2595 15.9441C76.5843 15.4507 75.582 15.4871 74.7771 15.513C74.3097 15.5286 73.1464 15.6688 72.5439 15.7675L72.8192 17.1334C73.3541 17.0295 74.4395 16.91 74.8186 16.8944C75.1977 16.8789 75.7586 16.8945 76.1429 17.0762C76.4441 17.2216 76.6674 17.2943 76.6311 18.037C75.9248 17.9903 75.2029 17.9383 74.481 18.0058C73.8007 18.0682 73.1412 18.2759 72.6322 18.7537C72.305 19.0601 72.1544 19.4652 72.1025 19.8858C72.0713 20.1299 72.0765 20.3948 72.1129 20.6337C72.1804 21.0751 72.3725 21.4958 72.6997 21.7762C73.1723 22.1865 73.7747 22.3787 74.4031 22.3839C75.0575 22.389 76.1741 22.0878 76.7505 21.6672C76.7921 21.8957 76.8648 22.2488 76.9375 22.4358L78.402 22.2021C78.2722 21.5322 78.1943 21.0699 78.1891 20.7168L78.1683 17.7877C78.1631 17.0295 77.9502 16.4374 77.2595 15.9337V15.9441Z" fill="white"/>
<path fill-rule="evenodd" clip-rule="evenodd" d="M80.5299 15.6846H85.4999V22.249H83.9159V17.1387H82.0827C82.0567 18.0164 82.0308 19.0031 81.9165 19.8548C81.823 20.5352 81.6153 21.0701 81.3297 21.4752C80.8 22.223 80.0729 22.2698 79.1485 22.2646L78.9355 20.9299C79.3406 20.9454 79.6522 20.9143 79.8755 20.7896C80.13 20.6442 80.3066 20.3586 80.3741 19.886C80.5662 18.5046 80.5507 17.0296 80.5299 15.6949" fill="white"/>
<path fill-rule="evenodd" clip-rule="evenodd" d="M48.9416 20.3584C49.5441 19.8131 49.5648 18.8212 49.5648 18.1772C49.5648 17.5332 49.5441 16.562 48.9416 16.0167C48.4846 15.6012 47.7524 15.513 47.1551 15.513H46.0957V20.8673H47.1759C47.7627 20.8673 48.4898 20.7687 48.9468 20.3584M49.8816 21.5373C49.113 22.1034 48.1055 22.2488 47.1759 22.2488H44.5117V14.1367H47.1603C48.1003 14.1367 49.1078 14.2769 49.8868 14.8482C50.9982 15.6636 51.1176 17.0502 51.128 18.1408C51.1384 19.2262 51.0293 20.7012 49.8868 21.5425L49.8816 21.5373Z" fill="white"/>
<path fill-rule="evenodd" clip-rule="evenodd" d="M100.761 18.5823C100.751 18.1357 100.797 17.5852 101.14 17.2632C101.42 16.9984 101.867 16.9153 102.262 16.9101C102.516 16.9049 102.818 16.9153 103.072 17.0088C103.384 17.1178 103.633 17.3463 103.643 17.7047C103.664 18.4837 102.786 18.5512 102.231 18.5979C101.763 18.6187 101.254 18.5979 100.761 18.5875M100.231 21.797C100.906 22.2904 101.742 22.3995 102.547 22.3891C103.217 22.3891 104.256 22.2956 104.895 22.1242L104.646 20.7895C104.069 20.9349 103.15 21.0336 102.589 21.0232C102.111 21.0129 101.53 20.9817 101.161 20.6285C100.891 20.3741 100.802 20.0729 100.792 19.7924C101.306 19.9119 102.148 19.9638 102.438 19.9378C103.269 19.8599 104.012 19.782 104.697 19.1432C105.077 18.7849 105.274 18.1617 105.243 17.6423C105.217 17.149 104.983 16.6193 104.63 16.2817C104.022 15.7052 103.165 15.5027 102.345 15.5131C101.607 15.5235 100.849 15.6585 100.236 16.1051C99.2757 16.8114 99.1406 17.8813 99.1406 18.9511C99.1406 20.0209 99.2757 21.0907 100.236 21.7918L100.231 21.797Z" fill="white"/>
<path fill-rule="evenodd" clip-rule="evenodd" d="M114.9 20.9761C115.191 21.0384 115.674 21.0852 116.188 21.0852C116.91 21.0852 117.679 20.8515 117.668 20.2179C117.658 19.5999 116.936 19.4856 116.479 19.4856H114.9V20.9761ZM113.316 15.871C113.986 15.627 115.093 15.5127 115.872 15.5127C116.656 15.5127 117.679 15.6581 118.328 16.1411C118.738 16.4475 118.951 16.8993 118.962 17.3563C118.967 17.7147 118.847 18.0782 118.603 18.3846C118.484 18.53 118.312 18.6391 118.214 18.7118C118.411 18.8209 118.588 18.9299 118.738 19.0753C119.065 19.3921 119.258 19.8232 119.232 20.3737C119.211 20.8774 118.998 21.3812 118.629 21.698C117.99 22.2589 116.952 22.3991 116.121 22.4095C115.124 22.4199 114.028 22.2693 113.316 22.1862V15.8762V15.871ZM114.9 18.3171H116.365C116.78 18.3171 117.481 18.1925 117.487 17.5433C117.487 17.0136 116.666 16.8162 115.991 16.8214C115.601 16.8214 115.118 16.8785 114.89 16.9201L114.9 18.3171Z" fill="white"/>
<path fill-rule="evenodd" clip-rule="evenodd" d="M132.624 22.0256C131.938 22.2748 131.304 22.3891 130.572 22.3891C129.84 22.3891 129.025 22.2437 128.417 21.797C127.461 21.0959 127.389 19.9274 127.389 18.9459C127.389 17.9643 127.456 16.8114 128.417 16.1103C128.708 15.8974 129.071 15.7468 129.456 15.6533C129.84 15.5598 130.229 15.5286 130.624 15.5234C131.232 15.5234 131.819 15.6118 132.353 15.8091L131.964 17.0659C131.512 16.9412 131.133 16.8997 130.666 16.8997C130.245 16.8997 129.72 16.9724 129.398 17.2788C128.957 17.6995 128.936 18.4318 128.936 18.9303C128.936 19.4289 128.941 20.2027 129.398 20.6337C129.7 20.9194 130.172 20.9921 130.567 21.0128C131.164 21.044 131.642 20.9453 132.213 20.7843L132.618 22.0256H132.624Z" fill="white"/>
<path fill-rule="evenodd" clip-rule="evenodd" d="M120.396 15.6846H121.986V19.9327C122.874 18.4838 123.783 17.0816 124.748 15.6846H126.338V22.249H124.748V17.9956C123.897 19.4705 122.952 20.8468 121.986 22.249H120.396V15.6846Z" fill="white"/>
</g>
<defs>
<clipPath id="clip0_4010_30240">
<rect width="132" height="36" fill="white" transform="translate(0.623047)"/>
</clipPath>
</defs>
</svg>
