<svg width="73" height="36" viewBox="0 0 73 36" fill="none" xmlns="http://www.w3.org/2000/svg">
<g clip-path="url(#clip0_4010_30256)">
<path d="M30.6081 0.717773H28.5801V8.47043H30.6081V0.717773Z" fill="white"/>
<path d="M41.9855 8.47461H30.6094V10.5026H41.9855V8.47461Z" fill="white"/>
<path d="M57.3073 2.74512H55.2793V10.4977H57.3073V2.74512Z" fill="white"/>
<path d="M45.9968 2.74512H43.9688V10.4977H45.9968V2.74512Z" fill="white"/>
<path d="M56.0734 4.63086H44.6973V6.65888H56.0734V4.63086Z" fill="white"/>
<path d="M55.2747 0.717773H46V2.74579H55.2747V0.717773Z" fill="white"/>
<path d="M61.3152 0.717773H59.2871V10.4287H61.3152V0.717773Z" fill="white"/>
<path d="M72.6237 4.63086H70.5957V10.4288H72.6237V4.63086Z" fill="white"/>
<path d="M70.739 2.67578H68.7109V4.6341H70.739V2.67578Z" fill="white"/>
<path d="M70.7366 4.55762H59.2871V6.51594H70.7366V4.55762Z" fill="white"/>
<path d="M68.7085 0.717773H59.2871V2.67612H68.7085V0.717773Z" fill="white"/>
<path d="M72.6216 8.47461H59.2871V10.4329H72.6216V8.47461Z" fill="white"/>
<path fill-rule="evenodd" clip-rule="evenodd" d="M5.63264 29.8802C5.63264 30.0929 5.805 30.2689 6.02138 30.2689H24.4095C24.6222 30.2689 24.7982 30.0965 24.7982 29.8802V14.8553C24.7982 14.6426 24.6258 14.4665 24.4095 14.4665H6.02138C5.80867 14.4665 5.63264 14.6389 5.63264 14.8553V29.8802ZM24.5158 9.45703C24.7285 9.45703 24.9045 9.62939 24.9045 9.84576V13.9898C24.9045 14.2025 25.0769 14.3785 25.2933 14.3785H29.419C29.6318 14.3785 29.8078 14.5509 29.8078 14.7673V30.0855C29.8078 30.2982 29.6354 30.4743 29.419 30.4743H25.2933C25.0806 30.4743 24.9045 30.6466 24.9045 30.863V34.8933C24.9045 35.106 24.7322 35.2821 24.5158 35.2821H0.87976C0.736733 35.2821 0.623047 35.1647 0.623047 35.0253V9.74674C0.623047 9.58905 0.751404 9.4607 0.909099 9.4607H24.5158V9.45703Z" fill="white"/>
<path d="M54.1782 29.0729L54.8566 28.0461H55.315L54.3615 29.3663V30.2831H53.9655V29.3663L53.0156 28.0461H53.4924L54.1782 29.0729ZM51.0499 30.2831V28.0461H52.2601C52.4288 28.0461 52.5719 28.0571 52.6892 28.0827C52.8066 28.1047 52.9056 28.1561 52.9826 28.2368C53.0853 28.3358 53.1403 28.4715 53.1403 28.6475C53.1403 28.8235 53.0926 28.9519 52.9973 29.0472C52.9239 29.1279 52.8176 29.1829 52.6855 29.2086V29.2159C52.7956 29.2343 52.8836 29.2783 52.9459 29.3443C52.9753 29.3773 53.0009 29.414 53.0156 29.4616C53.034 29.5056 53.0413 29.5423 53.045 29.568C53.0486 29.5937 53.0523 29.634 53.056 29.689L53.0706 29.9751C53.0816 30.1071 53.111 30.2098 53.1623 30.2868H52.7296C52.6746 30.1914 52.6489 30.0961 52.6452 29.9971L52.6342 29.766C52.6305 29.6267 52.5975 29.5277 52.5389 29.469C52.4692 29.403 52.3445 29.37 52.1611 29.37H51.4387V30.2868H51.0426L51.0499 30.2831ZM51.446 28.3541V29.0619H52.2271C52.3848 29.0619 52.5059 29.0326 52.5865 28.9739C52.6746 28.9152 52.7186 28.8199 52.7186 28.6878C52.7186 28.5742 52.6819 28.4861 52.6049 28.4275C52.5352 28.3761 52.3958 28.3505 52.1795 28.3505H51.446V28.3541ZM50.4925 28.3101C50.7162 28.5228 50.8299 28.8052 50.8299 29.1683C50.8299 29.5313 50.7199 29.8137 50.4925 30.0264C50.2614 30.2428 49.946 30.3528 49.55 30.3528C49.1539 30.3528 48.8385 30.2428 48.6075 30.0264C48.3838 29.8137 48.2701 29.5313 48.2701 29.1683C48.2701 28.8052 48.3838 28.5228 48.6075 28.3101C48.8385 28.0937 49.1502 27.9837 49.55 27.9837C49.9497 27.9837 50.2614 28.0937 50.4925 28.3101ZM50.1624 28.5045C50.0121 28.3578 49.8067 28.2844 49.55 28.2844C49.2933 28.2844 49.0879 28.3578 48.9375 28.5045C48.7762 28.6658 48.6955 28.8859 48.6955 29.1646C48.6955 29.4433 48.7762 29.6633 48.9375 29.8247C49.0879 29.9714 49.2933 30.0447 49.55 30.0447C49.8067 30.0447 50.0121 29.9714 50.1624 29.8247C50.3238 29.6633 50.4045 29.4433 50.4045 29.1646C50.4045 28.8859 50.3238 28.6658 50.1624 28.5045ZM47.2909 28.3541H46.4584V28.0461H48.5121V28.3541H47.6833V30.2831H47.2872V28.3541H47.2909ZM45.1345 29.7147L44.8851 30.2831H44.456L45.4755 28.0461H45.8973L46.9132 30.2831H46.4841L46.2237 29.7147H45.1308H45.1345ZM45.2518 29.4286H46.121L45.6846 28.4165L45.2518 29.4286ZM42.4023 30.2831V28.0461H43.6125C43.7812 28.0461 43.9243 28.0571 44.0416 28.0827C44.159 28.1047 44.258 28.1561 44.335 28.2368C44.4377 28.3358 44.4927 28.4715 44.4927 28.6475C44.4927 28.8235 44.445 28.9519 44.3497 29.0472C44.2763 29.1279 44.17 29.1829 44.0379 29.2086V29.2159C44.148 29.2343 44.236 29.2783 44.2983 29.3443C44.3277 29.3773 44.3533 29.414 44.368 29.4616C44.3863 29.5056 44.3937 29.5423 44.3974 29.568C44.401 29.5937 44.4047 29.634 44.4084 29.689L44.423 29.9751C44.434 30.1071 44.4634 30.2098 44.5147 30.2868H44.082C44.0269 30.1914 44.0013 30.0961 43.9976 29.9971L43.9866 29.766C43.9829 29.6267 43.9499 29.5277 43.8913 29.469C43.8216 29.403 43.6969 29.37 43.5135 29.37H42.7911V30.2868H42.395L42.4023 30.2831ZM42.7984 28.3541V29.0619H43.5795C43.7372 29.0619 43.8583 29.0326 43.9389 28.9739C44.0269 28.9152 44.071 28.8199 44.071 28.6878C44.071 28.5742 44.0343 28.4861 43.9573 28.4275C43.8876 28.3761 43.7482 28.3505 43.5319 28.3505H42.7984V28.3541ZM41.8449 28.3101C42.0686 28.5228 42.1823 28.8052 42.1823 29.1683C42.1823 29.5313 42.0686 29.8137 41.8449 30.0264C41.6138 30.2428 41.2984 30.3528 40.9024 30.3528C40.5063 30.3528 40.1909 30.2428 39.9599 30.0264C39.7362 29.8137 39.6225 29.5313 39.6225 29.1683C39.6225 28.8052 39.7362 28.5228 39.9599 28.3101C40.1909 28.0937 40.5026 27.9837 40.9024 27.9837C41.3021 27.9837 41.6138 28.0937 41.8449 28.3101ZM41.5148 28.5045C41.3645 28.3578 41.1591 28.2844 40.9024 28.2844C40.6457 28.2844 40.4403 28.3578 40.2899 28.5045C40.1286 28.6658 40.0479 28.8859 40.0479 29.1646C40.0479 29.4433 40.1286 29.6633 40.2899 29.8247C40.4403 29.9714 40.6457 30.0447 40.9024 30.0447C41.1591 30.0447 41.3645 29.9714 41.5148 29.8247C41.6762 29.6633 41.7569 29.4433 41.7569 29.1646C41.7569 28.8859 41.6762 28.6658 41.5148 28.5045ZM37.4477 28.0461H38.647C38.9257 28.0461 39.1237 28.0827 39.2411 28.1598C39.3768 28.2514 39.4464 28.3908 39.4464 28.5815C39.4464 28.7428 39.3988 28.8675 39.3107 28.9592C39.2337 29.0399 39.131 29.0839 39.0027 29.0949V29.1059C39.1714 29.1206 39.3071 29.1793 39.4134 29.2783C39.5124 29.3736 39.5638 29.502 39.5638 29.6633C39.5638 29.8467 39.5124 29.9861 39.4098 30.0851C39.2704 30.2208 39.0137 30.2868 38.6396 30.2868H37.4514V28.0497L37.4477 28.0461ZM37.8438 28.3358V28.9886H38.5296C38.7056 28.9886 38.823 28.9665 38.8927 28.9262C38.988 28.8639 39.0357 28.7722 39.0357 28.6475C39.0357 28.5338 38.9953 28.4495 38.9147 28.3981C38.8523 28.3578 38.735 28.3358 38.5663 28.3358H37.8438ZM37.8438 29.2673V29.9971H38.5589C38.7533 29.9971 38.8927 29.9787 38.9697 29.9384C39.0137 29.92 39.054 29.8834 39.087 29.832C39.12 29.777 39.1384 29.711 39.1384 29.6267C39.1384 29.5167 39.1017 29.4286 39.032 29.3663C38.999 29.3333 38.9513 29.3113 38.889 29.2966C38.8267 29.2783 38.7753 29.271 38.7276 29.2673C38.6836 29.2673 38.6249 29.2673 38.5443 29.2673H37.8401H37.8438ZM35.6031 29.7147L35.3537 30.2831H34.9246L35.9441 28.0461H36.3659L37.3817 30.2831H36.9526L36.6923 29.7147H35.5994H35.6031ZM35.7204 29.4286H36.5896L36.1532 28.4165L35.7204 29.4286ZM35.0016 29.9787V30.2868H33.2926V28.0497H33.6887V29.9787H35.0016ZM58.7697 26.1281V26.4361H57.0607V24.1991H57.4568V26.1281H58.7697ZM55.216 25.864L54.9666 26.4325H54.5376L55.5571 24.1954H55.9788L56.9947 26.4325H56.5656L56.3052 25.864H55.2123H55.216ZM55.3334 25.578H56.2025L55.7661 24.5658L55.3334 25.578ZM53.7161 24.5035H52.8836V24.1954H54.9373V24.5035H54.1085V26.4325H53.7124V24.5035H53.7161ZM50.9986 24.6942V26.4325H50.6025V24.1954H51.0132L52.3702 25.9337V24.1954H52.7662V26.4325H52.3555L50.9986 24.6942ZM48.9155 25.1379H50.2468V25.446H48.9155V26.1317H50.4668V26.4398H48.5268V24.2028H50.4265V24.5108H48.9192V25.1452L48.9155 25.1379ZM46.077 24.1954H47.0195C47.4743 24.1954 47.8043 24.2981 48.0097 24.5071C48.2041 24.7015 48.3031 24.9692 48.3031 25.3103C48.3031 25.6513 48.2041 25.9264 48.0024 26.1244C47.874 26.2491 47.7236 26.3334 47.5549 26.3738C47.3862 26.4141 47.1809 26.4361 46.9388 26.4361H46.077V24.1991V24.1954ZM46.4657 24.5035V26.1281H46.9755C47.2799 26.1281 47.5073 26.0584 47.6613 25.9154C47.8116 25.7797 47.885 25.578 47.885 25.3066C47.885 25.0352 47.8153 24.8555 47.676 24.7235C47.5293 24.5768 47.2982 24.5035 46.9865 24.5035H46.4694H46.4657ZM45.4609 26.1281V26.4361H43.7519V24.1991H44.148V26.1281H45.4609ZM41.9036 25.864L41.6542 26.4325H41.2251L42.2446 24.1954H42.6664L43.6822 26.4325H43.2531L42.9928 25.864H41.8999H41.9036ZM42.0246 25.578H42.8937L42.4573 24.5658L42.0246 25.578ZM40.4073 24.5035H39.5748V24.1954H41.6285V24.5035H40.7997V26.4325H40.4036V24.5035H40.4073ZM39.0577 24.1954H39.4538V26.4325H39.0577V24.1954ZM37.6824 25.2663H38.79V26.4325H38.4783V26.0584H38.4673C38.3829 26.2161 38.2692 26.3298 38.1299 26.3995C38.0052 26.4618 37.8181 26.4948 37.5687 26.4948C37.3817 26.4948 37.2094 26.4728 37.0553 26.4325C36.9013 26.3921 36.7656 26.3078 36.6482 26.1831C36.4539 25.974 36.3549 25.6843 36.3549 25.3176C36.3549 24.9289 36.4722 24.6318 36.7033 24.4191C36.9233 24.2211 37.2204 24.1221 37.6018 24.1221C37.9392 24.1221 38.2032 24.1808 38.3866 24.2944C38.6029 24.4265 38.724 24.6208 38.746 24.8775H38.3279C38.3096 24.7272 38.2362 24.6098 38.1079 24.5291C37.9905 24.4595 37.8291 24.4228 37.6274 24.4228C37.3597 24.4228 37.1543 24.4925 37.0113 24.6355C36.8573 24.7895 36.7766 25.0169 36.7766 25.3103C36.7766 25.6037 36.8536 25.8274 37.004 25.9814C37.0883 26.0694 37.18 26.1281 37.279 26.1537C37.3781 26.1831 37.4917 26.1941 37.6201 26.1941C37.8658 26.1941 38.0528 26.1318 38.1812 26.0107C38.2179 25.9814 38.2619 25.9227 38.3096 25.8384C38.3572 25.754 38.3829 25.6513 38.3902 25.5303H37.6824V25.2626V25.2663ZM35.7387 24.1954H36.1348V26.4325H35.7387V24.1954ZM33.289 24.1954H34.2315C34.6862 24.1954 35.0163 24.2981 35.2217 24.5071C35.416 24.7015 35.515 24.9692 35.515 25.3103C35.515 25.6513 35.416 25.9264 35.2143 26.1244C35.086 26.2491 34.9356 26.3334 34.7669 26.3738C34.5982 26.4141 34.3928 26.4361 34.1508 26.4361H33.289V24.1991V24.1954ZM33.6814 24.5035V26.1281H34.1911C34.4955 26.1281 34.7229 26.0584 34.8769 25.9154C35.0273 25.7797 35.1006 25.578 35.1006 25.3066C35.1006 25.0352 35.031 24.8555 34.8916 24.7235C34.7449 24.5768 34.5139 24.5035 34.2021 24.5035H33.685H33.6814Z" fill="white"/>
</g>
<defs>
<clipPath id="clip0_4010_30256">
<rect width="72.0006" height="36" fill="white" transform="translate(0.623047)"/>
</clipPath>
</defs>
</svg>
