<svg width="57" height="40" viewBox="0 0 57 40" fill="none" xmlns="http://www.w3.org/2000/svg">
<g clip-path="url(#clip0_4010_30283)">
<path d="M2.23524 32.4008H0.673828L3.51988 25.9746H5.16285L8.00891 32.4008H6.4475L5.9785 31.3259H2.70132L2.23232 32.4008H2.23524ZM4.3472 27.536L3.30141 29.9509H5.39297L4.3472 27.536Z" fill="white"/>
<path d="M9.04688 32.401V27.2188H10.3636V29.153H11.0889L12.5658 27.2188H14.1709L12.1959 29.7502L14.3078 32.401H12.694L11.0889 30.3765H10.3636V32.401H9.04688Z" fill="white"/>
<path d="M16.9791 32.4908C16.3091 32.4908 15.8139 32.3627 15.4993 32.1063C15.1846 31.85 15.0273 31.4392 15.0273 30.8741C15.0273 30.309 15.1992 29.8837 15.5459 29.6331C15.8925 29.3826 16.4489 29.2603 17.2209 29.2603H18.7764C18.7502 28.9078 18.6424 28.6544 18.4531 28.4971C18.2637 28.3398 17.9695 28.264 17.5704 28.264C16.9266 28.264 16.548 28.4941 16.4344 28.9515H15.138C15.2167 28.3135 15.4526 27.8504 15.8459 27.562C16.2392 27.2736 16.8305 27.1279 17.62 27.1279C18.4822 27.1279 19.1114 27.3056 19.5047 27.661C19.898 28.0164 20.0931 28.5903 20.0931 29.3797V32.4005H18.7764V31.9111C18.3977 32.2957 17.8006 32.4879 16.982 32.4879M16.3411 30.8158C16.3411 31.1741 16.6645 31.3547 17.3083 31.3547C17.7598 31.3547 18.1006 31.2732 18.3308 31.1101C18.5609 30.9469 18.7065 30.6935 18.7735 30.3468V30.2274H17.5675C16.749 30.2274 16.3411 30.4226 16.3411 30.8158Z" fill="white"/>
<path d="M22.5823 33.9246H21.2656V31.1747H22.023C22.1891 31.0407 22.3143 30.8076 22.3959 30.4726C22.4775 30.1376 22.5415 29.5434 22.5794 28.6927L22.6581 27.2188H26.9927V31.1747H27.9482V33.9246H26.6315V32.401H22.5765V33.9246H22.5823ZM23.5203 31.1747H25.6934V28.4451H23.8903L23.8699 28.8034C23.8233 29.8871 23.7068 30.6765 23.5203 31.1747Z" fill="white"/>
<path d="M29.5287 31.8529C29.1092 31.4276 28.9023 30.7459 28.9023 29.8109C28.9023 28.8758 29.1121 28.1941 29.5287 27.7688C29.9481 27.3435 30.624 27.1309 31.562 27.1309C32.5 27.1309 33.1641 27.3435 33.5807 27.7688C33.9944 28.1941 34.2041 28.8758 34.2041 29.8109C34.2041 29.9041 34.1983 30.0439 34.1837 30.2303H30.2482C30.3356 30.9819 30.7754 31.3577 31.5736 31.3577C32.1708 31.3577 32.567 31.1538 32.7592 30.7489H34.1138C33.9798 31.3926 33.7001 31.8442 33.2661 32.1034C32.835 32.3627 32.2669 32.4908 31.562 32.4908C30.624 32.4908 29.9481 32.2782 29.5287 31.8529ZM31.5707 28.264C31.1978 28.264 30.9036 28.3398 30.6851 28.4942C30.4667 28.6485 30.3268 28.8991 30.2656 29.2515H32.8757C32.8175 28.8991 32.6777 28.6456 32.4621 28.4942C32.2465 28.3427 31.9494 28.264 31.5707 28.264Z" fill="white"/>
<path d="M36.7933 32.401H35.4766V27.2188H37.6206L39.1033 30.9562L40.5977 27.2188H42.7417V32.401H41.425V28.4539L39.8112 32.401H38.4071L36.7933 28.4539V32.401Z" fill="white"/>
<path d="M44.2461 32.401V27.2188H45.5628V30.2774L48.1554 27.2188H49.3002V32.401H47.9835V29.3424L45.3938 32.401H44.2461Z" fill="white"/>
<path d="M52.4115 32.4008H50.5938L52.3299 30.2073C51.8405 30.0966 51.4822 29.8752 51.2521 29.5373C51.022 29.2023 50.9083 28.7333 50.9083 28.1332C50.9083 27.3758 51.089 26.8252 51.456 26.4844C51.8201 26.1436 52.4027 25.9746 53.2038 25.9746H56.6908V32.4008H55.2226V30.2888H54.0748L52.4144 32.4008H52.4115ZM52.3736 28.1332C52.3736 28.4012 52.4464 28.5993 52.595 28.7245C52.7407 28.8498 52.9737 28.9139 53.2912 28.9139H55.2197V27.3525H53.2912C52.9679 27.3525 52.7319 27.4137 52.5892 27.536C52.4464 27.6583 52.3736 27.8564 52.3736 28.1332Z" fill="white"/>
<path d="M1.61641 38.4365C1.26684 38.4365 1.01631 38.3549 0.859003 38.1918C0.701699 38.0286 0.623047 37.7665 0.623047 37.4053C0.623047 37.044 0.701699 36.7848 0.859003 36.6216C1.01631 36.4585 1.26975 36.377 1.61641 36.377C1.92228 36.377 2.15241 36.4381 2.3068 36.5605C2.4641 36.6828 2.56023 36.8751 2.59519 37.1402H2.22233C2.19028 37.0003 2.12327 36.8955 2.02714 36.8314C1.93101 36.7673 1.797 36.7323 1.62222 36.7323C1.40083 36.7323 1.24354 36.7848 1.14449 36.8926C1.04545 37.0003 0.995926 37.1722 0.995926 37.4082C0.995926 37.6441 1.04545 37.816 1.14449 37.9238C1.24354 38.0316 1.40374 38.084 1.62222 38.084C1.797 38.084 1.93101 38.052 2.02714 37.985C2.12327 37.9209 2.18737 37.816 2.22233 37.6762H2.59519C2.56023 37.9413 2.4641 38.1364 2.3068 38.2559C2.14949 38.3753 1.91936 38.4365 1.61641 38.4365Z" fill="white"/>
<path d="M4.93014 36.7617H4.12905V38.4075H3.75327V36.7617H2.95508V36.4092H4.93014V36.7617Z" fill="white"/>
<path d="M5.53961 36.6246C5.70274 36.4614 5.96201 36.3799 6.31741 36.3799C6.6728 36.3799 6.93205 36.4614 7.09519 36.6246C7.25832 36.7877 7.33989 37.0499 7.33989 37.4082C7.33989 37.7665 7.25832 38.0316 7.0981 38.1947C6.93788 38.3578 6.67571 38.4394 6.31741 38.4394C5.9591 38.4394 5.69984 38.3578 5.53671 38.1947C5.37649 38.0316 5.29492 37.7694 5.29492 37.4082C5.29492 37.047 5.37648 36.7877 5.53961 36.6246ZM5.6707 37.4082C5.6707 37.6441 5.72314 37.816 5.8251 37.9238C5.92706 38.0316 6.09019 38.084 6.31741 38.084C6.54462 38.084 6.70776 38.0287 6.80971 37.9238C6.91167 37.816 6.96409 37.6441 6.96409 37.4082C6.96409 37.1722 6.91458 36.9974 6.81263 36.8926C6.71067 36.7848 6.54754 36.7324 6.32032 36.7324C6.0931 36.7324 5.92706 36.7848 5.82802 36.8926C5.72606 37.0004 5.67653 37.1722 5.67653 37.4082H5.6707Z" fill="white"/>
<path d="M7.93164 38.4075V36.4092H8.54337L9.25416 38.0259L9.96494 36.4092H10.5738V38.4075H10.198V36.7471L9.45224 38.4075H9.05024L8.30742 36.7471V38.4075H7.93164Z" fill="white"/>
<path d="M11.9683 38.4365C11.7032 38.4365 11.508 38.3899 11.3827 38.2937C11.2604 38.1976 11.1992 38.0461 11.1992 37.8364C11.1992 37.6266 11.2662 37.4635 11.4061 37.3703C11.543 37.2771 11.7644 37.2305 12.0702 37.2305H12.749C12.749 37.0499 12.7024 36.9159 12.6121 36.8343C12.5188 36.7498 12.3732 36.709 12.1693 36.709C12.0091 36.709 11.8838 36.7353 11.7964 36.7877C11.709 36.8401 11.6507 36.9246 11.6187 37.0382H11.2458C11.2808 36.8081 11.374 36.6391 11.5226 36.5343C11.6711 36.4294 11.8925 36.377 12.1838 36.377C12.513 36.377 12.7519 36.444 12.9004 36.578C13.049 36.712 13.1248 36.9275 13.1248 37.2217V38.4044H12.749V38.1481C12.5975 38.3403 12.3382 38.4365 11.9683 38.4365ZM11.5779 37.8218C11.5779 37.9209 11.6158 37.9937 11.6944 38.0403C11.7731 38.084 11.8925 38.1073 12.0586 38.1073C12.2771 38.1073 12.4402 38.0665 12.548 37.9879C12.6557 37.9092 12.7227 37.781 12.749 37.6063V37.513H12.1664C11.7731 37.513 11.5779 37.615 11.5779 37.8218Z" fill="white"/>
<path d="M15.5434 36.7617H14.7423V38.4075H14.3665V36.7617H13.5684V36.4092H15.5434V36.7617Z" fill="white"/>
<path d="M16.1529 36.6246C16.316 36.4614 16.5753 36.3799 16.9307 36.3799C17.2861 36.3799 17.5453 36.4614 17.7085 36.6246C17.8716 36.7877 17.9532 37.0499 17.9532 37.4082C17.9532 37.7665 17.8716 38.0316 17.7114 38.1947C17.5512 38.3578 17.289 38.4394 16.9307 38.4394C16.5724 38.4394 16.3131 38.3578 16.15 38.1947C15.9898 38.0316 15.9082 37.7694 15.9082 37.4082C15.9082 37.047 15.9898 36.7877 16.1529 36.6246ZM16.284 37.4082C16.284 37.6441 16.3364 37.816 16.4384 37.9238C16.5403 38.0316 16.7035 38.084 16.9307 38.084C17.1579 38.084 17.321 38.0287 17.423 37.9238C17.525 37.816 17.5774 37.6441 17.5774 37.4082C17.5774 37.1722 17.5278 36.9974 17.4259 36.8926C17.3239 36.7848 17.1608 36.7324 16.9336 36.7324C16.7064 36.7324 16.5403 36.7848 16.4413 36.8926C16.3393 37.0004 16.2898 37.1722 16.2898 37.4082H16.284Z" fill="white"/>
<path d="M18.3613 38.4075V38.0317H18.4808C18.5448 38.0317 18.5944 38.0055 18.6293 37.956C18.6643 37.9065 18.6934 37.8016 18.7167 37.6443C18.74 37.487 18.7604 37.251 18.775 36.9364L18.8012 36.4092H20.4267V38.4075H20.0509V36.7617H19.1566L19.1479 36.9656C19.1304 37.3501 19.0954 37.6472 19.043 37.8599C18.9906 38.0696 18.9206 38.2153 18.8362 38.291C18.7517 38.3667 18.6381 38.4075 18.4953 38.4075H18.3613Z" fill="white"/>
<path d="M21.2701 36.6246C21.4332 36.4614 21.6925 36.3799 22.0479 36.3799C22.4033 36.3799 22.6625 36.4614 22.8257 36.6246C22.9888 36.7877 23.0703 37.0499 23.0703 37.4082C23.0703 37.7665 22.9888 38.0316 22.8286 38.1947C22.6684 38.3578 22.4062 38.4394 22.0479 38.4394C21.6896 38.4394 21.4303 38.3578 21.2672 38.1947C21.1069 38.0316 21.0254 37.7694 21.0254 37.4082C21.0254 37.047 21.1069 36.7877 21.2701 36.6246ZM21.4012 37.4082C21.4012 37.6441 21.4536 37.816 21.5556 37.9238C21.6575 38.0316 21.8207 38.084 22.0479 38.084C22.2751 38.084 22.4382 38.0287 22.5402 37.9238C22.6421 37.816 22.6946 37.6441 22.6946 37.4082C22.6946 37.1722 22.645 36.9974 22.5431 36.8926C22.4411 36.7848 22.278 36.7324 22.0508 36.7324C21.8236 36.7324 21.6575 36.7848 21.5585 36.8926C21.4565 37.0004 21.407 37.1722 21.407 37.4082H21.4012Z" fill="white"/>
<path d="M23.668 38.4075V36.4092H25.1565V36.7617H24.0437V38.4075H23.668Z" fill="white"/>
<path d="M25.9864 38.4075H25.6543V36.4092H26.033V37.8016L27.2419 36.4092H27.574V38.4075H27.1953V37.0122L25.9864 38.4075Z" fill="white"/>
<path d="M29.0867 37.7229C28.7634 37.7229 28.5361 37.6589 28.3992 37.5336C28.2623 37.4083 28.1953 37.2044 28.1953 36.9189V36.4092H28.5711V36.9189C28.5711 37.0792 28.6148 37.1928 28.6993 37.2627C28.7837 37.3326 28.9323 37.3676 29.1391 37.3676C29.2615 37.3676 29.4334 37.3559 29.6489 37.3297V36.4062H30.0247V38.4046H29.6489V37.6792C29.4508 37.7084 29.2644 37.7229 29.0838 37.7229" fill="white"/>
<path d="M30.8639 38.1918C30.7036 38.0287 30.625 37.7665 30.625 37.4082C30.625 37.0499 30.7065 36.7877 30.8639 36.6246C31.0241 36.4614 31.2833 36.3799 31.6417 36.3799C32 36.3799 32.2534 36.4614 32.4107 36.6246C32.568 36.7877 32.6466 37.0499 32.6466 37.4082C32.6466 37.4198 32.6466 37.4402 32.6466 37.4664C32.6466 37.4927 32.6466 37.5101 32.6466 37.5247H31.0095C31.0212 37.7257 31.0794 37.8714 31.1843 37.9675C31.2892 38.0607 31.4436 38.1102 31.6475 38.1102C31.9475 38.1102 32.1369 38.0083 32.2213 37.8014H32.6146C32.5622 38.0374 32.4515 38.2034 32.2854 38.2967C32.1194 38.3928 31.9067 38.4394 31.6446 38.4394C31.2863 38.4394 31.027 38.3578 30.8668 38.1947M31.6475 36.7091C31.4552 36.7091 31.3067 36.7498 31.2047 36.8343C31.0998 36.9188 31.0386 37.0528 31.0183 37.2392H32.2738C32.2534 37.0499 32.1922 36.913 32.0903 36.8314C31.9883 36.7498 31.8397 36.7091 31.6475 36.7091Z" fill="white"/>
<path d="M34.131 38.4365C33.7815 38.4365 33.5309 38.3549 33.3707 38.1918C33.2134 38.0286 33.1348 37.7665 33.1348 37.4053C33.1348 37.044 33.2134 36.7848 33.3707 36.6216C33.528 36.4585 33.7815 36.377 34.131 36.377C34.4369 36.377 34.667 36.4381 34.8214 36.5605C34.9787 36.6828 35.0748 36.8751 35.1098 37.1402H34.7369C34.7049 37.0003 34.6379 36.8955 34.5418 36.8314C34.4456 36.7673 34.3116 36.7323 34.1369 36.7323C33.9155 36.7323 33.7582 36.7848 33.6591 36.8926C33.5601 37.0003 33.5105 37.1722 33.5105 37.4082C33.5105 37.6441 33.5601 37.816 33.6591 37.9238C33.7582 38.0316 33.9184 38.084 34.1369 38.084C34.3116 38.084 34.4456 38.052 34.5418 37.985C34.6379 37.9209 34.702 37.816 34.7369 37.6762H35.1098C35.0748 37.9413 34.9787 38.1364 34.8214 38.2559C34.6641 38.3753 34.434 38.4365 34.131 38.4365Z" fill="white"/>
<path d="M36.075 38.4075H35.6992V36.4092H36.075V37.2103H36.4479L37.0975 36.4092H37.5577L36.7596 37.385L37.6102 38.4075H37.1441L36.4479 37.5657H36.075V38.4075Z" fill="white"/>
<path d="M38.4561 38.4075H38.127V36.4092H38.5027V37.8016L39.7117 36.4092H40.0437V38.4075H39.668V37.0122L38.4561 38.4075Z" fill="white"/>
<path d="M40.7461 38.4077V36.4093H41.1219V37.8047L42.3308 36.4093H42.66V38.4077H42.2842V37.0123L41.0753 38.4077H40.7461ZM41.0199 35.5791H41.3287C41.3287 35.6956 41.3607 35.783 41.4219 35.8355C41.4831 35.8879 41.5821 35.917 41.7132 35.917C41.8443 35.917 41.9433 35.8908 42.0045 35.8355C42.0657 35.783 42.0977 35.6956 42.0977 35.5791H42.4065C42.4065 35.783 42.3512 35.9345 42.2405 36.0335C42.1298 36.1297 41.955 36.1792 41.7132 36.1792C41.4714 36.1792 41.2996 36.1297 41.1889 36.0306C41.0782 35.9316 41.0228 35.7801 41.0228 35.5791H41.0199Z" fill="white"/>
<path d="M44.5488 36.4092H44.9246V38.0521H46.049V36.4092H46.4248V38.0521H46.7977V39.0134H46.4219V38.4075H44.5488V36.4092Z" fill="white"/>
<path d="M47.4479 38.1918C47.2876 38.0287 47.209 37.7665 47.209 37.4082C47.209 37.0499 47.2876 36.7877 47.4479 36.6246C47.6081 36.4614 47.8673 36.3799 48.2256 36.3799C48.5839 36.3799 48.8374 36.4614 48.9976 36.6246C49.1549 36.7877 49.2335 37.0499 49.2335 37.4082C49.2335 37.4198 49.2335 37.4402 49.2335 37.4664C49.2335 37.4927 49.2335 37.5101 49.2335 37.5247H47.5964C47.6081 37.7257 47.6663 37.8714 47.7712 37.9675C47.8761 38.0607 48.0305 38.1102 48.2344 38.1102C48.5344 38.1102 48.7238 38.0083 48.8082 37.8014H49.2015C49.1491 38.0374 49.0384 38.2034 48.8723 38.2967C48.7063 38.3928 48.4936 38.4394 48.2315 38.4394C47.8731 38.4394 47.6139 38.3578 47.4537 38.1947M48.2286 36.7091C48.0363 36.7091 47.8877 36.7498 47.7858 36.8343C47.6809 36.9188 47.6197 37.0528 47.5993 37.2392H48.8548C48.8345 37.0499 48.7733 36.913 48.6713 36.8314C48.5694 36.7498 48.4208 36.7091 48.2286 36.7091Z" fill="white"/>
<path d="M50.2019 38.4075H49.8262V36.4092H50.2019V37.2307H51.3672V36.4092H51.743V38.4075H51.3672V37.5831H50.2019V38.4075Z" fill="white"/>
<path d="M54.2231 36.7617H53.422V38.4075H53.0462V36.7617H52.248V36.4092H54.2231V36.7617Z" fill="white"/>
<path d="M55.1023 39.3657H54.7266V36.4061H55.1023V36.6857C55.2422 36.4789 55.4927 36.374 55.8481 36.374C56.1685 36.374 56.4016 36.4556 56.5443 36.6187C56.69 36.7818 56.7628 37.044 56.7628 37.4052C56.7628 37.7664 56.69 38.0257 56.5443 38.1888C56.3987 38.352 56.1685 38.4335 55.8481 38.4335C55.4927 38.4335 55.2422 38.3287 55.1023 38.1218V39.3628V39.3657ZM55.2596 37.9238C55.3616 38.0315 55.5218 38.084 55.7461 38.084C55.9704 38.084 56.1306 38.0315 56.2326 37.9238C56.3346 37.8189 56.3841 37.6441 56.3841 37.4081C56.3841 37.1722 56.3346 37.0003 56.2326 36.8925C56.1306 36.7848 55.9704 36.7323 55.7461 36.7323C55.5218 36.7323 55.3616 36.7848 55.2596 36.8925C55.1577 37.0003 55.1082 37.1722 55.1082 37.4081C55.1082 37.6441 55.1577 37.8189 55.2596 37.9238Z" fill="white"/>
<path fill-rule="evenodd" clip-rule="evenodd" d="M28.8746 19.5188C34.0016 19.5188 38.6362 17.4447 41.9892 14.0947C42.5951 13.4888 43.1602 12.8392 43.6758 12.1546L39.7141 9.13672C39.3295 9.64359 38.913 10.1242 38.4644 10.5728C36.0028 13.0344 32.6121 14.555 28.8717 14.5579C25.1313 14.5579 21.7406 13.0344 19.279 10.5728C18.8421 10.1359 18.4342 9.66689 18.0585 9.17459L14.0996 12.1896C14.6094 12.8625 15.1629 13.4975 15.7601 14.0947C19.1101 17.4447 23.7476 19.5159 28.8746 19.5188Z" fill="white"/>
<path d="M34.7877 22.773H37.1968L37.191 22.7788H39.6321C39.7253 22.7788 39.7486 22.7642 39.7136 22.6652C39.6122 22.3857 39.5108 22.1063 39.4093 21.8269C38.8638 20.3245 38.3185 18.8229 37.7843 17.3167C36.423 18.0595 34.9581 18.6374 33.4163 19.0233C33.8121 20.2285 34.2075 21.4338 34.6012 22.639C34.6362 22.7409 34.6799 22.773 34.7877 22.773Z" fill="white"/>
<path d="M33.3781 18.9071C34.9193 18.5221 36.3833 17.944 37.7431 17.2002C37.6997 17.078 37.6565 16.9556 37.6133 16.8333C37.1065 15.4032 36.5922 13.9775 36.0755 12.5521C34.7944 13.3535 33.3721 13.9477 31.8553 14.2885C31.9549 14.5901 32.0546 14.8917 32.1543 15.1933C32.4412 16.0614 32.7282 16.9295 33.0136 17.7975L33.0155 17.8033C33.1364 18.1712 33.2573 18.5392 33.3781 18.9071Z" fill="white"/>
<path d="M26.0377 14.3228C25.8691 14.8208 25.7005 15.3189 25.5319 15.8169L24.4793 18.933C22.9228 18.5543 21.444 17.9795 20.0709 17.236C20.3618 16.4495 20.6525 15.6628 20.9433 14.8761C21.2211 14.1243 21.499 13.3726 21.7769 12.6209C23.0719 13.4144 24.5079 13.9975 26.0377 14.3228Z" fill="white"/>
<path d="M31.8169 14.1722C31.6426 13.6444 31.4685 13.1167 31.2949 12.589C31.1289 12.085 30.9609 11.5814 30.7929 11.0777C30.4482 10.044 30.1034 9.00988 29.7743 7.97184C29.7408 7.86406 29.7037 7.75701 29.6665 7.64995C29.6294 7.5429 29.5923 7.43585 29.5588 7.32807C29.5092 7.17076 29.4218 7.03967 29.317 6.91733C29.1422 6.7105 28.7402 6.75128 28.5771 6.99015C28.5071 7.09211 28.4634 7.20863 28.4256 7.32515C28.1862 8.06202 27.931 8.79279 27.6758 9.52378C27.5365 9.9227 27.3971 10.3217 27.2604 10.7218C26.8649 11.8823 26.4708 13.0441 26.0771 14.2065C24.5477 13.883 23.1127 13.2995 21.8201 12.5043C22.0574 11.8624 22.2949 11.2207 22.5325 10.579C22.6519 10.2556 22.7711 9.93219 22.8904 9.6088C23.4114 8.19612 23.9323 6.78381 24.4609 5.37342C24.726 4.66264 25.0028 3.95768 25.3086 3.26438C25.5621 2.69051 25.9145 2.17199 26.3515 1.70882C26.6515 1.3913 26.9924 1.12912 27.374 0.928125C27.808 0.697995 28.2828 0.566907 28.7781 0.517385C29.2878 0.464951 29.7801 0.537778 30.2375 0.74169C30.6541 0.925212 31.0386 1.17573 31.3765 1.49325C31.7872 1.87778 32.0756 2.34677 32.3611 2.8216C32.6602 3.31841 32.8689 3.85491 33.0773 4.39082C33.1084 4.4708 33.1395 4.55077 33.1709 4.63059C33.6983 5.9765 34.1878 7.33503 34.6777 8.69484C34.8102 9.06265 34.9427 9.43055 35.0761 9.79832C35.2205 10.1964 35.365 10.5943 35.5094 10.9922C35.684 11.4731 35.8586 11.954 36.033 12.4349C34.7543 13.2381 33.3332 13.8329 31.8169 14.1722Z" fill="white"/>
<path d="M20.0281 17.3516C19.8036 17.9586 19.5791 18.5656 19.3543 19.1725C18.9232 20.3406 18.4892 21.5058 18.0522 22.671C18.011 22.7766 18.0609 22.7752 18.1213 22.7734C18.1292 22.7732 18.1373 22.773 18.1454 22.773C18.6931 22.773 19.2407 22.7727 19.7884 22.7723C20.8837 22.7717 21.979 22.771 23.0743 22.773C23.1704 22.773 23.2025 22.738 23.2287 22.6565C23.3307 22.3389 23.4355 22.0214 23.5433 21.7039L24.4401 19.049C22.8829 18.6692 21.4031 18.0943 20.0281 17.3516Z" fill="white"/>
<path d="M19.7051 18.2487L21.9365 12.21L26.2303 13.7772L24.1125 20.0431L19.7051 18.2487Z" fill="white"/>
</g>
<defs>
<clipPath id="clip0_4010_30283">
<rect width="56.1404" height="40" fill="white" transform="translate(0.623047)"/>
</clipPath>
</defs>
</svg>
