<svg width="101" height="26" viewBox="0 0 101 26" fill="none" xmlns="http://www.w3.org/2000/svg">
<g clip-path="url(#clip0_4010_30318)">
<path d="M37.668 20.624H37.9793V24.0518H40.2923V20.624H40.6069V24.0518H41.1258V25.2367H40.8145V24.343H37.668V20.624Z" fill="white"/>
<path d="M43.5099 20.5332C44.5208 20.5332 45.0296 21.3299 45.0296 22.2303C45.0296 22.2906 45.0229 22.3642 45.0162 22.4312H42.0337C42.0337 23.509 42.7634 24.1283 43.627 24.1283C44.0421 24.1283 44.4839 23.9576 44.7819 23.6597L44.9526 23.9208C44.6245 24.2321 44.1057 24.4329 43.627 24.4329C42.5793 24.4329 41.709 23.6731 41.709 22.4914C41.709 21.2328 42.5659 20.5332 43.5166 20.5332M44.7015 22.1399C44.6647 21.2328 44.1224 20.8244 43.5032 20.8244C42.817 20.8244 42.1877 21.2696 42.0504 22.1399H44.6982H44.7015Z" fill="white"/>
<path d="M46.0449 20.624H46.3562V22.281H48.7897V20.624H49.101V24.343H48.7897V22.5722H46.3562V24.343H46.0449V20.624Z" fill="white"/>
<path d="M51.352 20.9119H49.9395V20.624H53.0793V20.9119H51.6633V24.343H51.352V20.9119Z" fill="white"/>
<path d="M53.9043 20.6236H54.2156V21.0688C54.2156 21.2395 54.1922 21.3667 54.1922 21.3667H54.2089C54.4332 20.8445 54.9386 20.5332 55.5478 20.5332C56.5454 20.5332 57.1546 21.3299 57.1546 22.4814C57.1546 23.6329 56.4617 24.4296 55.5043 24.4296C54.9386 24.4296 54.4399 24.1183 54.2022 23.5894H54.1888C54.1888 23.5894 54.2189 23.7233 54.2189 23.9174V25.8288H53.9076V20.6202L53.9043 20.6236ZM55.5043 24.1283C56.234 24.1283 56.8299 23.5258 56.8299 22.4847C56.8299 21.4437 56.2943 20.8412 55.5345 20.8412C54.8483 20.8412 54.2089 21.3265 54.2089 22.4914C54.2089 23.3182 54.6708 24.1283 55.5043 24.1283Z" fill="white"/>
<path d="M61.7269 20.5332C62.7914 20.5332 63.655 21.3734 63.655 22.4613C63.655 23.5492 62.7914 24.4329 61.7269 24.4329C60.6624 24.4329 59.7988 23.5693 59.7988 22.4613C59.7988 21.3533 60.6624 20.5332 61.7269 20.5332ZM61.7269 24.1283C62.6106 24.1283 63.3269 23.4053 63.3269 22.4613C63.3269 21.5173 62.614 20.8378 61.7269 20.8378C60.8399 20.8378 60.1269 21.5374 60.1269 22.4613C60.1269 23.3852 60.8399 24.1283 61.7269 24.1283Z" fill="white"/>
<path d="M64.6758 20.6236H64.9871V21.0688C64.9871 21.2395 64.9636 21.3667 64.9636 21.3667H64.9804C65.2047 20.8445 65.7101 20.5332 66.3193 20.5332C67.3168 20.5332 67.9261 21.3299 67.9261 22.4814C67.9261 23.6329 67.2332 24.4296 66.2758 24.4296C65.7101 24.4296 65.2114 24.1183 64.9737 23.5894H64.9603C64.9603 23.5894 64.9904 23.7233 64.9904 23.9174V25.8288H64.6791V20.6202L64.6758 20.6236ZM66.2758 24.1283C67.0055 24.1283 67.6014 23.5258 67.6014 22.4847C67.6014 21.4437 67.0658 20.8412 66.3059 20.8412C65.6197 20.8412 64.9804 21.3265 64.9804 22.4914C64.9804 23.3182 65.4423 24.1283 66.2758 24.1283Z" fill="white"/>
<path d="M69.8169 20.9119H68.4043V20.624H71.5441V20.9119H70.1282V24.343H69.8169V20.9119Z" fill="white"/>
<path d="M73.848 20.5332C74.9124 20.5332 75.7761 21.3734 75.7761 22.4613C75.7761 23.5492 74.9124 24.4329 73.848 24.4329C72.7835 24.4329 71.9199 23.5693 71.9199 22.4613C71.9199 21.3533 72.7835 20.5332 73.848 20.5332ZM73.848 24.1283C74.7317 24.1283 75.448 23.4053 75.448 22.4613C75.448 21.5173 74.735 20.8378 73.848 20.8378C72.9609 20.8378 72.248 21.5374 72.248 22.4613C72.248 23.3852 72.9609 24.1283 73.848 24.1283Z" fill="white"/>
<path d="M76.5677 24.0522C77.2974 23.1283 77.2974 21.5952 77.2974 21.15V20.6211H79.3962V24.0522H79.9184V25.2338H79.6071V24.34H76.4304V25.2338H76.1191V24.0522H76.5744H76.5677ZM79.0849 24.0522V20.9056H77.6121V21.15C77.6121 21.709 77.5685 23.135 76.9426 24.0522H79.0849Z" fill="white"/>
<path d="M82.4183 20.5332C83.4828 20.5332 84.3464 21.3734 84.3464 22.4613C84.3464 23.5492 83.4828 24.4329 82.4183 24.4329C81.3539 24.4329 80.4902 23.5693 80.4902 22.4613C80.4902 21.3533 81.3539 20.5332 82.4183 20.5332ZM82.4183 24.1283C83.302 24.1283 84.0183 23.4053 84.0183 22.4613C84.0183 21.5173 83.3054 20.8378 82.4183 20.8378C81.5313 20.8378 80.8183 21.5374 80.8183 22.4613C80.8183 23.3852 81.5313 24.1283 82.4183 24.1283Z" fill="white"/>
<path d="M85.3672 20.624H85.6785V22.281H88.112V20.624H88.4233V24.343H88.112V22.5722H85.6785V24.343H85.3672V20.624Z" fill="white"/>
<path d="M90.6684 20.9119H89.2559V20.624H92.3957V20.9119H90.9797V24.343H90.6684V20.9119Z" fill="white"/>
<path d="M93.2266 20.624H93.5379V23.2718C93.5379 23.5262 93.5144 23.8743 93.5144 23.8743H93.5278C93.5278 23.8743 93.7889 23.5028 93.9529 23.2718L95.9848 20.624H96.276V24.3463H95.9647V21.6885C95.9647 21.4341 95.9881 21.1094 95.9881 21.1094H95.9747C95.9747 21.1094 95.7136 21.4609 95.5496 21.6885L93.5178 24.3463H93.2266V20.624Z" fill="white"/>
<path d="M97.5723 20.624H97.8836V23.2718C97.8836 23.5262 97.8601 23.8743 97.8601 23.8743H97.8735C97.8735 23.8743 98.1346 23.5028 98.2986 23.2718L100.33 20.624H100.622V24.3463H100.31V21.6885C100.31 21.4341 100.334 21.1094 100.334 21.1094H100.32C100.32 21.1094 100.059 21.4609 99.8953 21.6885L97.8635 24.3463H97.5723V20.624Z" fill="white"/>
<path d="M5.93864 10.6895C5.79135 11.1883 5.62399 11.9247 5.62399 11.9247H5.58717C5.58717 11.9247 5.4198 11.1481 5.23569 10.6527L3.26076 5.22656H0.623047L4.58966 14.4921L4.23818 15.3223C3.88671 16.1524 3.24067 16.5407 2.59464 16.5407C2.07914 16.5407 1.5603 16.1524 1.5603 16.1524L0.783718 17.9065C0.783718 17.9065 1.61386 18.5157 2.74192 18.5157C4.12438 18.5157 5.49009 17.7759 6.13613 16.0621L10.3237 5.22991H7.77633L5.93194 10.6928L5.93864 10.6895Z" fill="white"/>
<path d="M12.3792 8.18147C12.3792 11.5222 11.5658 12.4996 10.4043 12.667V14.7357C13.524 14.6419 14.6119 12.282 14.6119 8.18482V7.13374H16.9015V14.6453H19.2446V5.23242H12.3792V8.18482V8.18147Z" fill="white"/>
<path d="M25.7852 8.45679H24.1049V5.22656H21.7617V14.6394H25.7652C28.2388 14.6394 29.3267 13.4042 29.3267 11.5766C29.3267 9.52796 27.9978 8.45679 25.7819 8.45679M25.3969 13.036H24.1049V10.0468H25.3601C26.4681 10.0468 26.9668 10.6928 26.9668 11.5598C26.9668 12.4268 26.4681 13.036 25.3969 13.036Z" fill="white"/>
<path d="M32.9584 5.22949H30.6152V14.6424H32.9584V5.22949Z" fill="white"/>
<path d="M40.4568 6.03935C39.3689 6.03935 38.1873 6.37074 37.3571 7.40508H37.3203C37.414 5.7816 38.4651 4.91462 40.0718 4.24849L43.6535 2.88276L42.9539 0.981445L39.707 2.25345C36.2759 3.58236 35.0742 5.59415 35.0742 9.13568C35.0742 12.4764 36.6073 14.8564 39.871 14.8564C42.656 14.8564 44.4836 12.9551 44.4836 10.3541C44.4836 7.75321 42.8769 6.036 40.4601 6.036M39.7739 12.9249C38.5019 12.9249 37.4475 11.9843 37.4475 10.3776C37.4475 8.90137 38.4617 7.85029 39.8107 7.85029C41.066 7.85029 42.117 8.81099 42.117 10.3976C42.117 11.9843 41.066 12.9249 39.7739 12.9249Z" fill="white"/>
<path d="M70.7481 10.2673C70.5071 10.6355 70.159 11.1544 70.0485 11.392H70.0117C70.0285 11.2448 70.0686 10.6891 70.0686 10.2673V5.22949H67.8359V14.6424H70.1054L73.5934 9.62462C73.8344 9.2564 74.1825 8.75764 74.293 8.49989H74.3298C74.3131 8.7409 74.2762 9.27649 74.2762 9.62462V14.6424H76.5089V5.22949H74.2394L70.7515 10.2673H70.7481Z" fill="white"/>
<path d="M83.7609 12.8679C81.9533 12.8679 80.8253 11.5022 80.8253 9.9155C80.8253 8.32884 81.95 6.99993 83.6873 6.99993C84.6111 6.99993 85.5317 7.42504 86.1241 8.01418L87.1752 6.40744C86.2714 5.43 84.8321 5.00488 83.5567 5.00488C80.437 5.00488 78.4453 7.25768 78.4453 9.93224C78.4453 12.6068 80.437 14.8596 83.5567 14.8596C85.0697 14.8596 86.5459 14.2705 87.433 13.3265L86.5292 11.6662C85.8296 12.3491 84.7584 12.8646 83.7609 12.8646" fill="white"/>
<path d="M93.2339 8.45679H91.4799V5.22656H89.1367V14.6394H93.2138C95.6875 14.6394 96.7754 13.4042 96.7754 11.5766C96.7754 9.52796 95.4465 8.45679 93.2305 8.45679M92.8456 13.036H91.4799V10.0468H92.8088C93.9167 10.0468 94.4155 10.6928 94.4155 11.5598C94.4155 12.4268 93.9167 13.036 92.8456 13.036Z" fill="white"/>
<path d="M100.443 10.9463L100.624 1.84473H98.2637L98.4444 10.9463H100.443Z" fill="white"/>
<path d="M100.548 12.4971H98.332V14.6427H100.548V12.4971Z" fill="white"/>
<path d="M65.4883 7.1011C64.916 7.56973 64.2666 7.99151 63.5569 8.35637V5.22656H61.2138V9.30033C59.5167 9.82253 57.6053 10.1004 55.5969 10.1004C55.5367 10.1004 55.4764 10.1004 55.4162 10.1004C53.8228 10.087 52.2998 9.89617 50.9441 9.56143V5.22991H48.601V8.75806C47.8311 8.39989 47.1717 7.98481 46.6696 7.51283L45.2168 9.06602C46.0771 9.87274 47.2386 10.5422 48.601 11.0611V14.6428H50.9441V11.7473C52.3232 12.0485 53.8262 12.2159 55.3961 12.2293C55.463 12.2293 55.5266 12.2293 55.5936 12.2293C57.5685 12.2293 59.4698 11.9816 61.2104 11.5096V14.6394H63.5536V10.6995C64.7888 10.1707 65.9001 9.51791 66.8373 8.74467L65.485 7.1011H65.4883Z" fill="white"/>
</g>
<defs>
<clipPath id="clip0_4010_30318">
<rect width="100.001" height="26" fill="white" transform="translate(0.623047)"/>
</clipPath>
</defs>
</svg>
