<svg width="412" height="100" viewBox="0 0 412 100" fill="none" xmlns="http://www.w3.org/2000/svg">
<g clip-path="url(#clip0_2914_10458)">
<path d="M158.365 24.3627V33.9051H152.572V29.3903H138.232V33.9051H132.408V24.3627H133.212C134.536 24.3397 135.469 23.4368 136.012 21.6385C136.556 19.8479 136.892 17.2614 137.023 13.8944L137.275 6.98438H155.327V24.3627H158.365ZM141.974 20.5213C141.675 22.1895 141.216 23.4674 140.596 24.3627H149.075V12.0043H142.639L142.54 14.4377C142.456 16.8252 142.264 18.8531 141.966 20.5213H141.974Z" fill="white"/>
<path d="M184.996 27.6927C183.84 28.3508 182.447 28.8788 180.802 29.2614C179.157 29.6441 177.45 29.8354 175.683 29.8354C173.295 29.8354 171.26 29.5446 169.584 28.9707C167.908 28.3967 166.653 27.5933 165.804 26.5678C164.962 25.5424 164.541 24.3563 164.541 23.0172C164.541 21.8464 164.862 20.8057 165.505 19.9104C166.148 19.015 167.028 18.3187 168.161 17.8289C167.288 17.3775 166.615 16.7576 166.163 15.9541C165.704 15.1506 165.475 14.2706 165.475 13.3141C165.475 12.0744 165.865 10.9419 166.645 9.92414C167.426 8.89873 168.612 8.07994 170.211 7.46011C171.811 6.84027 173.785 6.53418 176.134 6.53418C177.603 6.53418 179.057 6.67192 180.488 6.9474C181.919 7.22288 183.174 7.59785 184.269 8.06464L182.539 12.8014C180.557 11.929 178.506 11.4852 176.394 11.4852C174.879 11.4852 173.747 11.6842 173.004 12.0744C172.255 12.4723 171.887 13.0157 171.887 13.7197C171.887 14.9976 172.813 15.6404 174.673 15.6404H181.009V20.4766H174.252C173.165 20.4766 172.339 20.6526 171.788 21.0046C171.229 21.3566 170.954 21.877 170.954 22.5581C170.954 23.285 171.359 23.8513 172.17 24.2569C172.981 24.6624 174.236 24.869 175.951 24.869C177.167 24.869 178.422 24.7007 179.708 24.3716C181.001 24.0426 182.126 23.5911 183.082 23.0095L185.003 27.6851L184.996 27.6927Z" fill="white"/>
<path d="M213.485 6.97656V29.3824H207.149V20.6435H198.51V29.3824H192.174V6.97656H198.51V15.3941H207.149V6.97656H213.485Z" fill="white"/>
<path d="M240.818 12.0041H233.969V29.3824H227.725V12.0041H220.846V6.97656H240.818V12.0041Z" fill="white"/>
<path d="M268.411 29.3824L268.381 17.5061L262.618 27.1709H259.802L254.04 17.7586V29.3748H248.217V6.97656H253.436L261.31 19.9089L268.993 6.97656H274.212L274.273 29.3824H268.419H268.411Z" fill="white"/>
<path d="M298.338 25.0381H288.865L287.105 29.3922H280.639L290.533 6.98633H296.777L306.702 29.3922H300.106L298.346 25.0381H298.338ZM296.479 20.3625L293.602 13.1923L290.724 20.3625H296.487H296.479Z" fill="white"/>
<path d="M317.372 28.3432C315.505 27.3484 314.036 25.971 312.972 24.1956C311.909 22.428 311.373 20.4154 311.373 18.1809C311.373 15.9465 311.909 13.9339 312.972 12.1663C314.036 10.3986 315.505 9.01352 317.372 8.01872C319.24 7.02393 321.344 6.53418 323.693 6.53418C325.744 6.53418 327.588 6.89384 329.233 7.6208C330.879 8.34777 332.241 9.39613 333.327 10.7582L329.295 14.4084C327.841 12.656 326.081 11.7836 324.015 11.7836C322.798 11.7836 321.719 12.0515 320.762 12.5871C319.814 13.1228 319.079 13.8727 318.551 14.8446C318.031 15.8164 317.77 16.9336 317.77 18.1886C317.77 19.4436 318.031 20.5608 318.551 21.5326C319.071 22.5045 319.814 23.2544 320.762 23.7901C321.711 24.3257 322.798 24.5936 324.015 24.5936C326.081 24.5936 327.848 23.7212 329.295 21.9688L333.327 25.619C332.241 26.9811 330.871 28.0294 329.233 28.7564C327.588 29.4834 325.744 29.843 323.693 29.843C321.344 29.843 319.24 29.3456 317.372 28.3508V28.3432Z" fill="white"/>
<path d="M358.517 12.0041H351.669V29.3824H345.424V12.0041H338.545V6.97656H358.517V12.0041Z" fill="white"/>
<path d="M384.988 27.6927C383.832 28.3508 382.44 28.8788 380.794 29.2614C379.149 29.6441 377.443 29.8354 375.675 29.8354C373.287 29.8354 371.252 29.5446 369.576 28.9707C367.9 28.3967 366.645 27.5933 365.796 26.5678C364.954 25.5424 364.533 24.3563 364.533 23.0172C364.533 21.8464 364.855 20.8057 365.497 19.9104C366.14 19.015 367.02 18.3187 368.153 17.8289C367.28 17.3775 366.607 16.7576 366.155 15.9541C365.696 15.1506 365.467 14.2706 365.467 13.3141C365.467 12.0744 365.857 10.9419 366.638 9.92414C367.418 8.89873 368.604 8.07994 370.204 7.46011C371.803 6.84027 373.777 6.53418 376.126 6.53418C377.596 6.53418 379.05 6.67192 380.481 6.9474C381.912 7.22288 383.167 7.59785 384.261 8.06464L382.531 12.8014C380.549 11.929 378.499 11.4852 376.387 11.4852C374.871 11.4852 373.739 11.6842 372.997 12.0744C372.247 12.4723 371.879 13.0157 371.879 13.7197C371.879 14.9976 372.805 15.6404 374.665 15.6404H381.001V20.4766H374.244C373.157 20.4766 372.331 20.6526 371.78 21.0046C371.221 21.3566 370.946 21.877 370.946 22.5581C370.946 23.285 371.351 23.8513 372.163 24.2569C372.974 24.6624 374.229 24.869 375.943 24.869C377.159 24.869 378.414 24.7007 379.7 24.3716C380.993 24.0426 382.118 23.5911 383.075 23.0095L384.995 27.6851L384.988 27.6927Z" fill="white"/>
<path d="M407.04 7.98666C408.533 8.66006 409.688 9.6166 410.499 10.8639C411.31 12.1112 411.716 13.5805 411.716 15.264C411.716 16.9475 411.31 18.4091 410.499 19.6487C409.688 20.8884 408.533 21.8449 407.04 22.5107C405.548 23.1841 403.788 23.5208 401.76 23.5208H397.858V29.3824H391.521V6.97656H401.768C403.796 6.97656 405.556 7.31326 407.048 7.98666H407.04ZM404.324 17.6821C404.982 17.1158 405.319 16.3123 405.319 15.264C405.319 14.2156 404.989 13.4045 404.324 12.8306C403.666 12.2566 402.679 11.9658 401.378 11.9658H397.858V18.5315H401.378C402.679 18.5315 403.658 18.2484 404.324 17.6821Z" fill="white"/>
<path d="M207.974 99.8019V90.0682H211.648V89.2188H203.414V90.0682H207.102V99.8019H207.982H207.974ZM195.57 99.7866C195.914 99.9091 196.205 100.001 196.749 100.001C197.743 100.001 198.317 99.3351 198.952 97.9348L202.832 89.2341H201.883L198.815 96.0906L195.715 89.2341H194.767L198.333 97.1389L197.988 97.9271C197.598 98.7918 197.322 99.1668 196.611 99.1668C196.236 99.1668 195.869 99.0903 195.57 98.9525V99.8019V99.7866ZM190.305 99.8019V90.0682H193.978V89.2188H185.745V90.0682H189.433V99.8019H190.313H190.305ZM176.179 99.8019L182.906 90.8105H182.921V99.8019H183.801V89.2265H182.997L176.24 98.2638H176.225V89.2265H175.345V99.8019H176.179ZM169.728 99.8019V90.0682H173.401V89.2188H165.168V90.0682H168.856V99.8019H169.736H169.728ZM163.568 97.5675C162.795 98.4322 161.648 99.1515 160.14 99.1515C157.6 99.1515 155.625 97.0242 155.625 94.5142C155.625 92.0043 157.607 89.8769 160.14 89.8769C161.648 89.8769 162.841 90.6498 163.553 91.4762L164.188 90.8105C163.193 89.7239 161.693 89.0275 160.14 89.0275C157.117 89.0275 154.73 91.4609 154.73 94.5142C154.73 97.5675 157.117 100.001 160.14 100.001C161.648 100.001 163.193 99.3198 164.158 98.2179L163.568 97.5675ZM145.027 99.8019V94.8739H151.401V99.8019H152.281V89.2265H151.401V94.0321H145.027V89.2265H144.147V99.8019H145.027ZM133.242 99.8019L139.969 90.8105H139.984V99.8019H140.864V89.2265H140.06L133.304 98.2638H133.288V89.2265H132.408V99.8019H133.242ZM383.334 78.651L390.06 69.6596H390.076V78.651H390.956V68.0756H390.152L383.395 77.1129H383.38V68.0756H382.508V78.651H383.342H383.334ZM384.497 64.8616C384.887 65.9329 385.477 66.6905 386.732 66.6905C387.987 66.6905 388.576 65.9329 388.966 64.8616L388.3 64.5326C387.941 65.382 387.65 65.9253 386.732 65.9253C385.813 65.9253 385.523 65.382 385.178 64.5326L384.497 64.8616ZM371.588 78.651L378.314 69.6596H378.329V78.651H379.209V68.0756H378.406L371.649 77.1129H371.634V68.0756H370.754V78.651H371.588ZM361.846 78.651V74.756L363.43 73.1261L367.601 78.6587H368.688L364.05 72.4909L368.343 68.0756H367.134L361.846 73.501V68.0756H360.966V78.651H361.846ZM358.02 76.4166C357.247 77.2813 356.1 78.0006 354.592 78.0006C352.051 78.0006 350.077 75.8733 350.077 73.3633C350.077 70.8534 352.059 68.726 354.592 68.726C356.1 68.726 357.293 69.4989 358.005 70.3253L358.64 69.6596C357.645 68.573 356.145 67.8766 354.592 67.8766C351.569 67.8766 349.182 70.31 349.182 73.3633C349.182 76.4166 351.569 78.85 354.592 78.85C356.1 78.85 357.645 78.1689 358.609 77.067L358.02 76.4166ZM347.361 78.651V77.8016H341.078V73.723H346.986V72.8736H341.078V68.9173H347.276V68.0679H340.206V78.6434H347.368L347.361 78.651ZM336.9 78.651V68.0756H336.02V73.4245C335.216 73.5317 333.632 73.6082 332.439 73.6082C330.518 73.6082 330.051 72.4909 330.051 71.1135V68.0756H329.171V71.1135C329.171 73.6541 330.648 74.4499 332.332 74.4499C333.709 74.4499 335.262 74.3581 336.02 74.2663V78.651H336.9ZM318.573 78.651L325.299 69.6596H325.314V78.651H326.194V68.0756H325.391L318.634 77.1129H318.619V68.0756H317.746V78.651H318.58H318.573ZM310.086 78.651V68.9173H315.795V68.0679H309.206V78.6434H310.086V78.651ZM301.332 78.0006C298.792 78.0006 296.817 75.8733 296.817 73.3633C296.817 70.8534 298.799 68.726 301.332 68.726C303.865 68.726 305.847 70.8534 305.847 73.3633C305.847 75.8733 303.88 78.0006 301.332 78.0006ZM301.332 78.85C304.355 78.85 306.742 76.4166 306.742 73.3633C306.742 70.31 304.355 67.8766 301.332 67.8766C298.31 67.8766 295.937 70.31 295.937 73.3633C295.937 76.4166 298.31 78.85 301.332 78.85ZM285.79 78.651L289.869 69.5066H289.884L293.948 78.651H294.943L290.229 68.0756H289.502L284.788 78.651H285.783H285.79ZM278.398 78.0006C275.858 78.0006 273.883 75.8733 273.883 73.3633C273.883 70.8534 275.865 68.726 278.398 68.726C280.931 68.726 282.913 70.8534 282.913 73.3633C282.913 75.8733 280.947 78.0006 278.398 78.0006ZM278.398 78.85C281.421 78.85 283.808 76.4166 283.808 73.3633C283.808 70.31 281.421 67.8766 278.398 67.8766C275.376 67.8766 273.003 70.31 273.003 73.3633C273.003 76.4166 275.376 78.85 278.398 78.85ZM268.205 78.651V68.9173H271.879V68.0679H263.645V68.9173H267.333V78.651H268.213H268.205ZM258.747 69.5142H258.763L261.196 74.955H256.314L258.747 69.5142ZM254.669 78.651L255.924 75.8426H261.586L262.841 78.651H263.836L259.122 68.0756H258.395L253.681 78.651H254.661H254.669ZM242.7 78.651V69.782H242.716L246.718 76.4166H246.917L250.919 69.782H250.934V78.651H251.807V68.0756H250.919L246.84 74.8555H246.794L242.7 68.0756H241.82V78.651H242.7ZM233.954 78.0006C231.413 78.0006 229.439 75.8733 229.439 73.3633C229.439 70.8534 231.421 68.726 233.954 68.726C236.487 68.726 238.469 70.8534 238.469 73.3633C238.469 75.8733 236.502 78.0006 233.954 78.0006ZM233.954 78.85C236.977 78.85 239.364 76.4166 239.364 73.3633C239.364 70.31 236.977 67.8766 233.954 67.8766C230.931 67.8766 228.559 70.31 228.559 73.3633C228.559 76.4166 230.931 78.85 233.954 78.85ZM223.753 78.651V68.9173H227.427V68.0679H219.193V68.9173H222.881V78.651H223.761H223.753ZM217.586 76.4166C216.813 77.2813 215.665 78.0006 214.157 78.0006C211.617 78.0006 209.643 75.8733 209.643 73.3633C209.643 70.8534 211.625 68.726 214.157 68.726C215.665 68.726 216.859 69.4989 217.57 70.3253L218.206 69.6596C217.211 68.573 215.711 67.8766 214.157 67.8766C211.135 67.8766 208.747 70.31 208.747 73.3633C208.747 76.4166 211.135 78.85 214.157 78.85C215.665 78.85 217.211 78.1689 218.175 77.067L217.586 76.4166ZM206.107 73.723V72.8736H201.049V73.723H206.107ZM192.991 78.0006C190.451 78.0006 188.476 75.8733 188.476 73.3633C188.476 70.8534 190.458 68.726 192.991 68.726C195.524 68.726 197.506 70.8534 197.506 73.3633C197.506 75.8733 195.539 78.0006 192.991 78.0006ZM192.991 78.85C196.014 78.85 198.401 76.4166 198.401 73.3633C198.401 70.31 196.014 67.8766 192.991 67.8766C189.969 67.8766 187.596 70.31 187.596 73.3633C187.596 76.4166 189.969 78.85 192.991 78.85ZM179.592 78.651V74.756L181.176 73.1261L185.347 78.6587H186.433L181.796 72.4909L186.089 68.0756H184.88L179.592 73.501V68.0756H178.712V78.651H179.592ZM168.037 78.651L174.764 69.6596H174.779V78.651H175.659V68.0756H174.855L168.098 77.1129H168.083V68.0756H167.203V78.651H168.037ZM159.712 69.453H159.727L163.385 77.8093H156.023L159.712 69.453ZM155.135 80.8549V78.651H164.28V80.8549H165.16V77.8016H164.356L160.094 68.0679H159.367L155.059 77.8016H154.271V80.8549H155.135ZM152.855 78.651V77.8016H146.573V73.723H152.48V72.8736H146.573V68.9173H152.771V68.0679H145.7V78.6434H152.863L152.855 78.651ZM133.288 78.651V69.782H133.304L137.306 76.4166H137.505L141.507 69.782H141.522V78.651H142.402V68.0756H141.514L137.436 74.8555H137.39L133.296 68.0756H132.416V78.651H133.296H133.288ZM266.514 57.5001L273.241 48.5087H273.256V57.5001H274.136V46.9247H273.333L266.576 55.962H266.56V46.9247H265.68V57.5001H266.514ZM267.678 43.7031C268.068 44.7744 268.657 45.532 269.912 45.532C271.167 45.532 271.756 44.7744 272.146 43.7031L271.481 43.374C271.121 44.2234 270.83 44.7667 269.912 44.7667C268.994 44.7667 268.703 44.2234 268.359 43.374L267.678 43.7031ZM254.776 57.5001L261.502 48.5087H261.517V57.5001H262.397V46.9247H261.594L254.837 55.962H254.822V46.9247H253.949V57.5001H254.783H254.776ZM245.034 57.5001V53.6051L246.618 51.9752L250.789 57.5078H251.876L247.238 51.34L251.531 46.9247H250.322L245.034 52.3501V46.9247H244.154V57.5001H245.034ZM241.208 55.2657C240.435 56.1304 239.288 56.8497 237.78 56.8497C235.24 56.8497 233.265 54.7224 233.265 52.2124C233.265 49.7025 235.247 47.5751 237.78 47.5751C239.288 47.5751 240.481 48.348 241.193 49.1745L241.828 48.5087C240.833 47.4221 239.333 46.7257 237.78 46.7257C234.757 46.7257 232.37 49.1591 232.37 52.2124C232.37 55.2657 234.757 57.6991 237.78 57.6991C239.288 57.6991 240.833 57.018 241.798 55.9161L241.208 55.2657ZM224.228 47.7664H226.929C229.255 47.7664 229.783 49.0214 229.783 50.2305C229.783 51.4395 229.255 52.7404 226.929 52.7404H224.228V47.7664ZM224.228 57.5001V53.5898H227.052C228.911 53.5898 230.679 52.6868 230.679 50.2381C230.679 47.7894 228.911 46.9323 227.052 46.9323H223.348V57.5078H224.228V57.5001ZM212.443 57.5001L219.17 48.5087H219.185V57.5001H220.065V46.9247H219.262L212.505 55.962H212.489V46.9247H211.609V57.5001H212.443ZM202.687 51.6844H205.403C207.714 51.6844 208.242 52.97 208.242 54.1943C208.242 55.4187 207.714 56.6584 205.403 56.6584H202.687V51.6844ZM205.51 57.5001C207.37 57.5001 209.138 56.6354 209.138 54.1943C209.138 51.7533 207.37 50.8426 205.51 50.8426H202.687V47.7741H208.426V46.9247H201.807V57.5001H205.51ZM190.902 57.5001L197.629 48.5087H197.644V57.5001H198.524V46.9247H197.72L190.963 55.962H190.948V46.9247H190.068V57.5001H190.902ZM187.122 55.2657C186.349 56.1304 185.201 56.8497 183.694 56.8497C181.153 56.8497 179.179 54.7224 179.179 52.2124C179.179 49.7025 181.161 47.5751 183.694 47.5751C185.201 47.5751 186.395 48.348 187.107 49.1745L187.742 48.5087C186.747 47.4221 185.247 46.7257 183.694 46.7257C180.671 46.7257 178.284 49.1591 178.284 52.2124C178.284 55.2657 180.671 57.6991 183.694 57.6991C185.201 57.6991 186.747 57.018 187.711 55.9161L187.122 55.2657ZM171.244 56.8497C168.703 56.8497 166.729 54.7224 166.729 52.2124C166.729 49.7025 168.711 47.5751 171.244 47.5751C173.776 47.5751 175.758 49.7025 175.758 52.2124C175.758 54.7224 173.792 56.8497 171.244 56.8497ZM171.244 57.6991C174.266 57.6991 176.654 55.2657 176.654 52.2124C176.654 49.1591 174.266 46.7257 171.244 46.7257C168.221 46.7257 165.849 49.1591 165.849 52.2124C165.849 55.2657 168.221 57.6991 171.244 57.6991ZM157.148 52.5721H160.469C161.992 52.5721 163.17 53.3449 163.17 54.6841C163.17 55.8932 162.306 56.6507 160.301 56.6507H157.14V52.5721H157.148ZM157.148 47.7664H159.941C161.663 47.7664 162.795 48.371 162.795 49.7943C162.795 51.1258 161.739 51.7303 160.377 51.7303H157.14V47.7741L157.148 47.7664ZM160.393 57.5001C162.39 57.5001 164.066 56.6966 164.066 54.7377C164.066 52.7787 162.375 52.2736 161.847 52.1359V52.1206C162.482 51.9369 163.691 51.3477 163.691 49.7484C163.691 47.6363 161.739 46.9247 160.018 46.9247H156.268V57.5001H160.393ZM148.394 56.8497C145.853 56.8497 143.879 54.7224 143.879 52.2124C143.879 49.7025 145.861 47.5751 148.394 47.5751C150.927 47.5751 152.909 49.7025 152.909 52.2124C152.909 54.7224 150.942 56.8497 148.394 56.8497ZM148.394 57.6991C151.416 57.6991 153.804 55.2657 153.804 52.2124C153.804 49.1591 151.416 46.7257 148.394 46.7257C145.371 46.7257 142.999 49.1591 142.999 52.2124C142.999 55.2657 145.371 57.6991 148.394 57.6991ZM133.288 57.5001V52.5721H139.663V57.5001H140.543V46.9247H139.663V51.7303H133.288V46.9247H132.408V57.5001H133.288Z" fill="white"/>
<path fill-rule="evenodd" clip-rule="evenodd" d="M106.451 21.7325L97.9421 6.94827L81.5586 16.3835L72.131 0L57.3468 8.50934L66.7744 24.8929L53.2911 32.6599V32.6523L53.2834 32.6599L39.8001 24.8929L49.2354 8.50934L34.4512 0L25.0159 16.3835L8.63238 6.94827L0.123047 21.7325L16.5066 31.1677L7.07132 47.5436L21.8555 56.0606L31.2908 39.6771L44.8353 47.4441V62.9936H25.8959V80.0505H44.8353V98.9516H53.2911H61.7392V80.0505H80.6786V62.9936H61.7392V47.4441L75.2914 39.6771L84.719 56.0606L99.5032 47.5436L90.0756 31.1677L106.451 21.7325Z" fill="white"/>
</g>
<defs>
<clipPath id="clip0_2914_10458">
<rect width="411.601" height="100" fill="white" transform="translate(0.123047)"/>
</clipPath>
</defs>
</svg>
