<svg width="470" height="409" viewBox="0 0 470 409" fill="none" xmlns="http://www.w3.org/2000/svg">
<path fill-rule="evenodd" clip-rule="evenodd" d="M459.99 56.9345L434.069 14.9191L425.188 0.504883H44.2716L35.3905 14.9191L9.47005 56.9137L-0.113281 72.4303L8.95371 88.2588L96.6908 241.282L184.056 393.661L192.793 408.907H276.667L285.404 393.661L372.769 241.282L460.486 88.2588L469.553 72.4303L459.969 56.9137L459.99 56.9345ZM346.539 226.057L259.174 378.435H210.286L122.921 226.057L35.2046 73.0334L61.1044 31.0388H408.335L434.255 73.0542L346.539 226.078V226.057Z" fill="white" fill-opacity="0.1"/>
<path fill-rule="evenodd" clip-rule="evenodd" d="M350.9 73.37L308.271 98.08L283.734 55.1494L245.256 77.4675L269.813 120.398L234.723 140.74L234.702 140.719V140.74L199.611 120.398L224.148 77.4675L185.691 55.1494L161.133 98.08L118.504 73.37L96.3633 112.099L138.993 136.83L114.435 179.76L152.913 202.058L177.45 159.127L212.726 179.49V220.216H163.426V264.935H212.726V314.459H234.702H256.698V264.935H305.999V220.216H256.698V179.49L291.954 159.127L316.511 202.058L354.969 179.76L330.432 136.83L373.061 112.099L350.9 73.37Z" fill="white" fill-opacity="0.1"/>
</svg>
