<svg width="201" height="29" viewBox="0 0 201 29" fill="none" xmlns="http://www.w3.org/2000/svg">
<g clip-path="url(#clip0_2914_8919)">
<path fill-rule="evenodd" clip-rule="evenodd" d="M68.663 20.4606C69.597 20.2429 70.3941 19.9444 71.0507 19.5687L71.0542 19.5652L69.9587 16.9037C69.4109 17.2337 68.7684 17.4901 68.0345 17.6797C67.3007 17.8658 66.5844 17.9606 65.8927 17.9606C64.92 17.9606 64.2038 17.8447 63.7403 17.613C63.2803 17.3812 63.0486 17.0617 63.0486 16.6474C63.0486 16.2576 63.2066 15.9627 63.5226 15.7625C63.8386 15.5624 64.3056 15.4606 64.9271 15.4606H68.7754V12.7078H65.1658C64.109 12.7078 63.5788 12.3426 63.5788 11.6123C63.5788 11.212 63.7929 10.8995 64.2178 10.6748C64.6427 10.45 65.2852 10.3377 66.149 10.3377C67.3533 10.3377 68.5191 10.587 69.6497 11.0856L70.6328 8.38895C70.0113 8.12209 69.2951 7.90791 68.4804 7.7499C67.6658 7.59541 66.8407 7.51465 66.0015 7.51465C64.6637 7.51465 63.5401 7.69372 62.6272 8.04485C61.7143 8.39948 61.0366 8.86647 60.5942 9.44934C60.1483 10.0322 59.9271 10.6748 59.9271 11.3805C59.9271 11.9248 60.0605 12.4269 60.3203 12.8833C60.5837 13.3398 60.9629 13.6944 61.4615 13.9507C60.8154 14.2316 60.3133 14.6284 59.9481 15.1375C59.583 15.6502 59.4004 16.2401 59.4004 16.9072C59.4004 17.6727 59.6392 18.3468 60.1202 18.9297C60.6012 19.5125 61.3175 19.969 62.2726 20.2955C63.2276 20.6221 64.3828 20.7871 65.7452 20.7871C66.7564 20.7871 67.7255 20.6783 68.663 20.4606ZM55.8854 23.105V17.6731V17.6696H54.1544V7.77143H43.87L43.726 11.711C43.6523 13.6317 43.4592 15.1029 43.1502 16.1247C42.8412 17.1429 42.311 17.6626 41.5561 17.6731H41.0996V23.105H44.4177V20.5348H52.5849V23.105H55.8854ZM45.7696 17.6731C46.1207 17.164 46.3805 16.4336 46.5526 15.4856V15.4891C46.7211 14.5411 46.8299 13.3859 46.8791 12.0235L46.9353 10.6366H50.601V17.6731H45.7696ZM87.2844 7.77148V20.5348H83.6749V15.5559H78.7521V20.5348H75.1426V7.77148H78.7521V12.5678H83.6749V7.77148H87.2844ZM98.95 10.638H102.851V7.77637H91.4746V10.638H95.3932V20.5362H98.95V10.638ZM118.563 20.5348L118.545 13.7722L115.262 19.2778H113.658L110.375 13.9161V20.5348H107.057V7.77148H110.027L114.511 15.1381L118.886 7.77148H121.857L121.892 20.5348H118.563ZM130.217 18.0559H135.61L136.614 20.5348H140.371L134.718 7.77148H131.161L125.529 20.5348H129.213L130.217 18.0559ZM132.913 11.3108L134.553 15.3944H131.274L132.913 11.3108ZM146.445 19.9417C145.381 19.3764 144.546 18.5899 143.938 17.5822C143.331 16.5744 143.025 15.4298 143.025 14.1552C143.025 12.8806 143.327 11.7359 143.938 10.7282C144.546 9.72049 145.381 8.93398 146.445 8.36867C147.509 7.80336 148.71 7.52246 150.048 7.52246C151.214 7.52246 152.267 7.72962 153.201 8.14395C154.138 8.55827 154.914 9.15167 155.536 9.93117L153.24 12.0098C152.414 11.0126 151.41 10.514 150.23 10.514C149.539 10.514 148.921 10.665 148.38 10.9705C147.839 11.276 147.421 11.7043 147.123 12.2556C146.825 12.8104 146.677 13.4424 146.677 14.1622C146.677 14.882 146.825 15.514 147.123 16.0688C147.421 16.6236 147.839 17.052 148.38 17.3539C148.921 17.6594 149.539 17.8104 150.23 17.8104C151.41 17.8104 152.411 17.3118 153.24 16.3146L155.536 18.3932C154.914 19.1727 154.138 19.7661 153.201 20.1805C152.263 20.5948 151.214 20.802 150.048 20.802C148.71 20.802 147.509 20.5211 146.445 19.9557V19.9417ZM165.977 10.6341H169.878V7.77246H158.502V10.6341H162.42V20.5323H165.977V10.6341ZM184.965 19.5687C184.308 19.9444 183.511 20.2429 182.577 20.4606C181.64 20.6783 180.671 20.7871 179.659 20.7871C178.297 20.7871 177.142 20.6221 176.187 20.2955C175.232 19.969 174.515 19.5125 174.034 18.9297C173.553 18.3468 173.314 17.6727 173.314 16.9072C173.314 16.2401 173.497 15.6502 173.862 15.1375C174.227 14.6284 174.729 14.2316 175.376 13.9507C174.877 13.6944 174.498 13.3398 174.234 12.8833C173.975 12.4269 173.841 11.9248 173.841 11.3805C173.841 10.6748 174.062 10.0322 174.508 9.44934C174.951 8.86647 175.628 8.39948 176.541 8.04485C177.454 7.69372 178.578 7.51465 179.916 7.51465C180.755 7.51465 181.58 7.59541 182.395 7.7499C183.209 7.90791 183.925 8.12209 184.547 8.38895L183.564 11.0856C182.433 10.587 181.267 10.3377 180.063 10.3377C179.199 10.3377 178.557 10.45 178.132 10.6748C177.707 10.8995 177.493 11.212 177.493 11.6123C177.493 12.3426 178.023 12.7078 179.08 12.7078H182.689V15.4606H178.841C178.22 15.4606 177.753 15.5624 177.437 15.7625C177.121 15.9627 176.963 16.2576 176.963 16.6474C176.963 17.0617 177.194 17.3812 177.654 17.613C178.118 17.8447 178.834 17.9606 179.807 17.9606C180.498 17.9606 181.215 17.8658 181.949 17.6797C182.682 17.4901 183.325 17.2337 183.873 16.9037L184.968 19.5652L184.965 19.5687ZM199.497 9.98707C199.033 9.2778 198.377 8.73005 197.527 8.34733H197.53C196.677 7.96109 195.676 7.77148 194.521 7.77148H188.686V20.5348H192.295V17.1992H194.518C195.673 17.1992 196.677 17.006 197.527 16.6233C198.377 16.2406 199.033 15.6963 199.497 14.9906C199.957 14.2883 200.188 13.4527 200.188 12.4941C200.188 11.5355 199.957 10.6999 199.497 9.98707ZM196.544 12.4941C196.544 13.091 196.354 13.5475 195.978 13.8705V13.867C195.599 14.19 195.041 14.3515 194.3 14.3515H192.295V10.6156H194.3C195.041 10.6156 195.603 10.7806 195.978 11.1072C196.354 11.4372 196.544 11.8972 196.544 12.4941Z" fill="white"/>
<path fill-rule="evenodd" clip-rule="evenodd" d="M29.7292 6.88862L27.3592 2.77352L22.7982 5.39988L20.1718 0.838867L16.0567 3.20891L18.6831 7.76992L14.9261 9.9328L11.1692 7.76992L13.7955 3.20891L9.68046 0.838867L7.0541 5.39988L2.49309 2.77352L0.123047 6.88862L4.68406 9.51497L2.0577 14.076L6.1728 16.446L8.79915 11.885L12.5737 14.0479V18.3772H7.29988V23.1278H12.5737V28.391H14.9261H17.2786V23.1278H22.5524V18.3772H17.2786V14.0479L21.0531 11.885L23.6795 16.446L27.7946 14.076L25.1682 9.51497L29.7292 6.88862Z" fill="white"/>
</g>
<defs>
<clipPath id="clip0_2914_8919">
<rect width="200.066" height="27.5517" fill="white" transform="translate(0.123047 0.838867)"/>
</clipPath>
</defs>
</svg>
