<svg width="100" height="94" viewBox="0 0 100 94" fill="none" xmlns="http://www.w3.org/2000/svg">
<path fill-rule="evenodd" clip-rule="evenodd" d="M100 20.9204L91.9948 7.03027L76.5892 15.8953L67.7182 0.5L53.8188 8.49987L62.6897 23.8952L50 31.1958L37.3102 23.8952L46.1812 8.49987L32.2818 0.5L23.4108 15.8953L8.00522 7.03027L0 20.9204L15.4056 29.7855L6.53463 45.1808L20.4341 53.1806L29.305 37.7853L42.0541 45.086V59.6991H24.241V75.7344H42.0541V93.5H50H57.9459V75.7344H75.759V59.6991H57.9459V45.086L70.695 37.7853L79.5659 53.1806L93.4654 45.1808L84.5944 29.7855L100 20.9204Z" fill="#EDEDED"/>
</svg>
