<svg width="12" height="14" viewBox="0 0 12 14" fill="none" xmlns="http://www.w3.org/2000/svg">
<path fill-rule="evenodd" clip-rule="evenodd" d="M2.2803 1.28757L1.22233 1.94487L0.859375 2.17009L0.859375 11.8295L1.22233 12.0548L2.27978 12.7121L2.67049 12.9551L3.06906 12.7252L6.92227 10.5003L10.7592 8.28483L11.1431 8.06328V5.93635L10.7592 5.7148L6.92227 3.49936L3.06906 1.275L2.67049 1.04508L2.2803 1.28757ZM6.53888 4.16451L10.3759 6.37996V7.61967L6.53888 9.83512L2.68568 12.0595L1.62824 11.4027L1.62824 2.59746L2.6862 1.94016L6.53888 4.16451Z" fill="white" fill-opacity="0.6"/>
<path d="M0.708984 2.08691L0.780273 2.04297L1.14355 1.81738L2.20117 1.16016L2.5918 0.917969L2.66797 0.870117L2.74512 0.915039L3.14355 1.14551H3.14453L6.99707 3.36914L10.834 5.58496L11.2178 5.80664L11.293 5.84961V8.15039L11.2178 8.19336L10.834 8.41504L6.99707 10.6299L3.14453 12.8555H3.14355L2.74512 13.085L2.66797 13.1299L2.59082 13.082L2.2002 12.8398L1.14355 12.1826L0.780273 11.957L0.708984 11.9131L0.708984 2.08691ZM2.68848 11.8848L6.46387 9.70508L10.2256 7.5332V6.4668L6.46387 4.29395L2.68848 2.11523L1.77832 2.68066L1.77832 11.3193L2.68848 11.8848Z" stroke="white" stroke-opacity="0.6" stroke-width="0.3"/>
</svg>
