<svg width="101" height="97" viewBox="0 0 101 97" fill="none" xmlns="http://www.w3.org/2000/svg">
<path d="M20.8652 67.5379C20.8652 73.1788 25.9804 77.7594 32.2869 77.7594C38.5935 77.7594 45.5451 71.1203 50.2481 67.5735C45.6078 64.0802 38.6921 57.3163 32.2869 57.3163C25.8818 57.3163 20.8652 61.8969 20.8652 67.5379Z" fill="#EDEDED"/>
<path d="M73.5125 47.898C76.6658 53.334 83.2053 55.446 88.1233 52.6211C93.0414 49.7961 94.4657 43.1036 91.3124 37.6765C88.0427 32.0533 78.9053 29.5759 73.4587 27.2945C72.7421 33.0336 70.3054 42.3728 73.5125 47.898Z" fill="#EDEDED"/>
<path d="M26.7946 27.472L43.86 43.9137L50.274 67.5382L56.7777 43.9405L73.4131 27.2848L49.9963 33.8081L26.7946 27.472Z" fill="#EDEDED"/>
<path d="M83.8402 9.52338C78.2413 12.7404 75.7509 21.6876 73.4756 27.1236C74.237 21.2866 76.5751 12.3038 73.3412 6.72517C70.1879 1.28914 63.6484 -0.822897 58.7304 2.00206C53.8123 4.82701 52.388 11.5196 55.5412 16.9467C58.7393 22.454 68.0379 25.0294 73.4039 27.2751H73.4487C79.2267 27.997 88.5791 30.3942 94.1153 27.2128C99.5798 24.0759 101.703 17.5705 98.8631 12.6781C96.0234 7.78564 89.2957 6.3687 83.8402 9.50556" fill="#EDEDED"/>
<path d="M44.6945 17.0794C47.8478 11.6433 46.4145 4.95079 41.5054 2.13475C36.5873 -0.690199 30.0478 1.43074 26.8946 6.85786C23.6248 12.481 26.0435 21.5975 26.7871 27.4257C32.1441 25.171 41.4875 22.5956 44.6945 17.0794Z" fill="#EDEDED"/>
<path d="M26.7864 27.4269C24.5289 22.0889 21.94 12.8387 16.4038 9.6573C10.9393 6.52044 4.21173 7.93737 1.38094 12.8298C-1.45881 17.7222 0.673248 24.2276 6.12879 27.3645C11.7277 30.5816 20.7665 28.2556 26.6341 27.4982C21.1696 29.7617 12.1756 32.2391 8.94167 37.8088C5.78838 43.2448 7.21273 49.9374 12.1308 52.7534C17.0488 55.5784 23.5883 53.4574 26.7416 48.0303C29.9397 42.523 27.521 33.2194 26.8043 27.4714L26.7954 27.4447V27.418L26.7864 27.4269Z" fill="#EDEDED"/>
<path d="M50.2394 67.5638C46.7278 72.18 39.9554 79.0418 39.9554 85.3957C39.9554 91.7497 44.5599 96.749 50.2305 96.749C55.901 96.749 60.5055 91.6605 60.5055 85.3957C60.5055 79.1309 53.9571 72.3404 50.3648 67.6618C55.0679 71.2353 61.7149 77.7497 68.1827 77.7497C74.6505 77.7497 79.5954 73.1691 79.5954 67.5281C79.5954 61.8871 74.4803 57.3066 68.1827 57.3066C61.8851 57.3066 54.8977 64.0348 50.2573 67.5371L50.2215 67.5727L50.2394 67.5638Z" fill="#EDEDED"/>
</svg>
