<svg width="17" height="16" viewBox="0 0 17 16" fill="none" xmlns="http://www.w3.org/2000/svg">
<path fill-rule="evenodd" clip-rule="evenodd" d="M7.64988 1.50213C4.32253 1.50213 1.62518 4.19948 1.62518 7.52684C1.62518 10.8542 4.32253 13.5515 7.64988 13.5515C9.31184 13.5515 10.8154 12.8796 11.9062 11.7907C12.9995 10.6994 13.6746 9.19265 13.6746 7.52684C13.6746 4.19948 10.9772 1.50213 7.64988 1.50213ZM0.123047 7.52684C0.123047 3.36988 3.49293 0 7.64988 0C11.8068 0 15.1767 3.36988 15.1767 7.52684C15.1767 9.33628 14.5375 10.9975 13.4737 12.2954L16.123 14.9361L15.0626 16L12.4108 13.3569C11.1141 14.4169 9.45579 15.0537 7.64988 15.0537C3.49293 15.0537 0.123047 11.6838 0.123047 7.52684Z" fill="white"/>
</svg>
