<svg width="101" height="101" viewBox="0 0 101 101" fill="none" xmlns="http://www.w3.org/2000/svg">
<path d="M9.24742 42.5386C17.5867 47.3511 28.1403 44.8333 33.4528 36.9761L45.0331 44.8244L15.7117 59.0565L21.0153 68.2351L47.9974 49.9583L48.9974 63.9136C39.5421 64.5833 32.0778 72.4672 32.0778 82.0922C32.0778 91.7172 40.2385 100.315 50.301 100.315C60.3635 100.315 68.5242 92.1547 68.5242 82.0922C68.5242 72.0297 61.0599 64.5833 51.6046 63.9136L52.6046 49.9583L79.5867 68.2351L84.8903 59.0565L55.5688 44.8244L67.1492 36.9761C72.4528 44.8333 83.0153 47.3511 91.3546 42.5386C100.069 37.5029 103.06 26.3601 98.0242 17.6458C92.9885 8.9315 81.8456 5.94043 73.1314 10.9761C64.7921 15.7886 61.7028 26.1904 65.8456 34.7172L53.2563 40.8244L55.5956 8.31543H44.9974L47.3367 40.8244L34.7474 34.7172C38.8992 26.1904 35.801 15.7886 27.4617 10.9761C18.7474 5.94043 7.59563 8.9315 2.56885 17.6458C-2.46687 26.3601 0.524207 37.5119 9.23849 42.5386" fill="#EDEDED"/>
</svg>
