<svg width="101" height="100" viewBox="0 0 101 100" fill="none" xmlns="http://www.w3.org/2000/svg">
<path d="M98.5773 13.2234C95.3631 7.60282 88.1682 5.65473 82.5895 8.89844L80.2251 10.278L78.8581 7.89178C75.644 2.27121 68.449 0.32312 62.8796 3.56683C57.3102 6.81054 55.3799 14.0716 58.5941 19.7015L59.961 22.0877L57.5966 23.4672C52.0272 26.7109 50.0968 33.9719 53.311 39.6018C56.5252 45.2224 63.7201 47.1705 69.2895 43.9268L71.654 42.5473L73.0209 44.9334C76.2351 50.554 83.43 52.5021 88.9994 49.2584C94.5688 46.0147 96.4991 38.7536 93.285 33.1237L91.918 30.7376L94.2825 29.358C99.8519 26.1143 101.782 18.8533 98.568 13.2327L98.5773 13.2234Z" fill="#EDEDED"/>
<path d="M64.6796 59.8182H61.9549V57.0685C61.9549 50.5718 56.6903 45.2588 50.2527 45.2588C43.8151 45.2588 38.5505 50.5718 38.5505 57.0685V59.8182H35.8259C29.3883 59.8182 24.1237 65.1312 24.1237 71.6279C24.1237 78.1247 29.3883 83.4377 35.8259 83.4377H38.5505V86.1874C38.5505 92.6841 43.8151 97.9971 50.2527 97.9971C56.6903 97.9971 61.9549 92.6841 61.9549 86.1874V83.4377H64.6796C71.1171 83.4377 76.3817 78.1247 76.3817 71.6279C76.3817 65.1312 71.1171 59.8182 64.6796 59.8182Z" fill="#EDEDED"/>
<path d="M27.2184 45.0734L28.5854 42.6873L30.9498 44.0668C36.5192 47.3105 43.7141 45.3717 46.9376 39.7418C50.1517 34.1213 48.2306 26.8602 42.652 23.6072L40.2875 22.2277L41.6545 19.8415C44.8687 14.2209 42.9476 6.95986 37.3689 3.70683C31.7995 0.463122 24.6046 2.40189 21.3904 8.03177L20.0235 10.418L17.659 9.03844C12.0896 5.79473 4.89469 7.7335 1.68052 13.3634C-1.53365 18.984 0.387461 26.245 5.96608 29.498L8.33054 30.8776L6.96359 33.2637C3.74941 38.8843 5.67053 46.1454 11.2492 49.3891C16.8185 52.6328 24.0135 50.694 27.2277 45.0641" fill="#EDEDED"/>
</svg>
