<svg width="101" height="100" viewBox="0 0 101 100" fill="none" xmlns="http://www.w3.org/2000/svg">
<path d="M9.59574 28.0533C12.155 29.5305 14.9118 30.3464 17.6686 30.5525C15.3841 32.1069 13.4003 34.1938 11.9231 36.7531C8.58234 42.5329 8.63386 49.3433 11.4508 54.8826C17.66 54.5563 23.5772 51.1897 26.918 45.4099C28.3951 42.8507 29.211 40.0939 29.4171 37.3371C30.9716 39.6215 33.0585 41.6054 35.6177 43.0825C35.841 43.2113 36.0729 43.3402 36.2962 43.4604C37.3096 42.3354 38.7867 41.6311 40.4185 41.6311C43.4844 41.6311 45.975 44.1217 45.975 47.1877C45.975 49.5923 44.4463 51.6449 42.3079 52.4178C42.3079 52.5209 42.3079 52.6239 42.3079 52.727C42.3079 55.6813 42.9777 58.4724 44.1887 60.9716C41.6981 59.7692 38.8984 59.0994 35.9441 59.0994C29.2711 59.0994 23.3968 62.5432 20.0045 67.7562C23.3968 72.9606 29.2625 76.413 35.9441 76.413C38.8984 76.413 41.6895 75.7345 44.1887 74.5322C42.9863 77.0228 42.3079 79.8225 42.3079 82.7768C42.3079 89.4498 45.7517 95.324 50.9647 98.7163C56.1777 95.324 59.6215 89.4584 59.6215 82.7768C59.6215 79.8225 58.9516 77.0313 57.7493 74.5322C60.2398 75.7345 63.0396 76.413 65.9939 76.413C72.6668 76.413 78.5411 72.9692 81.9334 67.7562C78.5411 62.5432 72.6754 59.0994 65.9939 59.0994C63.0396 59.0994 60.2484 59.7692 57.7493 60.9802C58.9516 58.4896 59.6301 55.6899 59.6301 52.7356C59.6301 52.6497 59.6301 52.5552 59.6301 52.4693C57.4229 51.7308 55.8256 49.6524 55.8256 47.1962C55.8256 44.1217 58.3161 41.6397 61.3821 41.6397C62.7304 41.6397 63.9671 42.1207 64.9289 42.9194C67.3508 41.4594 69.3347 39.5442 70.829 37.3543C71.0351 40.111 71.851 42.8764 73.3281 45.4271C76.6689 51.2069 82.5861 54.5734 88.7953 54.8998C91.6122 49.3604 91.6552 42.5501 88.323 36.7703C86.8458 34.211 84.862 32.1327 82.5775 30.5696C85.3343 30.3635 88.0997 29.5477 90.6504 28.0705C96.4302 24.7297 99.7967 18.8125 100.123 12.6119C94.5837 9.795 87.7733 9.74347 81.9935 13.0842C79.4343 14.5614 77.356 16.5453 75.7929 18.8297C75.5868 16.0729 74.7709 13.3075 73.2938 10.7569C69.953 4.97707 64.0358 1.61053 57.8266 1.28418C55.0097 6.82351 54.9581 13.6339 58.2989 19.4137C59.7761 21.9729 61.7599 24.0513 64.0444 25.6143C61.2876 25.8204 58.5222 26.6363 55.9715 28.1134C55.7998 28.2165 55.628 28.3196 55.4563 28.4226C55.5851 28.895 55.6538 29.3931 55.6538 29.8998C55.6538 32.9657 53.1632 35.4563 50.0973 35.4563C47.0313 35.4563 44.5408 32.9657 44.5408 29.8998C44.5408 29.3759 44.6095 28.8778 44.7469 28.3969C44.5923 28.3024 44.4291 28.2079 44.2745 28.1134C41.7153 26.6363 38.9585 25.8204 36.2017 25.6143C38.4861 24.0599 40.47 21.9729 41.9472 19.4137C45.2879 13.6339 45.2364 6.82351 42.4195 1.28418C36.2103 1.61053 30.2931 4.97707 26.9523 10.7569C25.4752 13.3161 24.6593 16.0729 24.4532 18.8297C22.8987 16.5453 20.8118 14.5614 18.2526 13.0842C12.4728 9.74347 5.66238 9.795 0.123047 12.6119C0.449395 18.8125 3.81593 24.7383 9.59574 28.0705" fill="#EDEDED"/>
</svg>
