<svg width="101" height="100" viewBox="0 0 101 100" fill="none" xmlns="http://www.w3.org/2000/svg">
<path d="M20.8652 68.5379C20.8652 74.1788 25.9804 78.7594 32.2869 78.7594C38.5935 78.7594 45.5451 72.1203 50.2481 68.5735C45.6078 65.0802 38.6921 58.3163 32.2869 58.3163C25.8818 58.3163 20.8652 62.8969 20.8652 68.5379Z" fill="#EDEDED"/>
<path d="M73.5125 48.898C76.6658 54.334 83.2053 56.446 88.1233 53.6211C93.0414 50.7961 94.4657 44.1036 91.3124 38.6765C88.0427 33.0533 78.9053 30.5759 73.4587 28.2945C72.7421 34.0336 70.3054 43.3728 73.5125 48.898Z" fill="#EDEDED"/>
<path d="M26.7946 28.472L43.86 44.9137L50.274 68.5382L56.7777 44.9405L73.4131 28.2848L49.9963 34.8081L26.7946 28.472Z" fill="#EDEDED"/>
<path d="M83.8402 10.5234C78.2413 13.7404 75.7509 22.6876 73.4756 28.1236C74.237 22.2866 76.5751 13.3038 73.3412 7.72517C70.1879 2.28914 63.6484 0.177103 58.7304 3.00206C53.8123 5.82701 52.388 12.5196 55.5412 17.9467C58.7393 23.454 68.0379 26.0294 73.4039 28.2751H73.4487C79.2267 28.997 88.5791 31.3942 94.1153 28.2128C99.5798 25.0759 101.703 18.5705 98.8631 13.6781C96.0234 8.78564 89.2957 7.3687 83.8402 10.5056" fill="#EDEDED"/>
<path d="M44.6945 18.0794C47.8478 12.6433 46.4145 5.95079 41.5054 3.13475C36.5873 0.309801 30.0478 2.43074 26.8946 7.85786C23.6248 13.481 26.0435 22.5975 26.7871 28.4257C32.1441 26.171 41.4875 23.5956 44.6945 18.0794Z" fill="#EDEDED"/>
<path d="M26.7864 28.4269C24.5289 23.0889 21.94 13.8387 16.4038 10.6573C10.9393 7.52044 4.21173 8.93737 1.38094 13.8298C-1.45881 18.7222 0.673248 25.2276 6.12879 28.3645C11.7277 31.5816 20.7665 29.2556 26.6341 28.4982C21.1696 30.7617 12.1756 33.2391 8.94167 38.8088C5.78838 44.2448 7.21273 50.9374 12.1308 53.7534C17.0488 56.5784 23.5883 54.4574 26.7416 49.0303C29.9397 43.523 27.521 34.2194 26.8043 28.4714L26.7954 28.4447V28.418L26.7864 28.4269Z" fill="#EDEDED"/>
<path d="M50.2394 68.5638C46.7278 73.18 39.9554 80.0418 39.9554 86.3957C39.9554 92.7497 44.5599 97.749 50.2305 97.749C55.901 97.749 60.5055 92.6605 60.5055 86.3957C60.5055 80.1309 53.9571 73.3404 50.3648 68.6618C55.0679 72.2353 61.7149 78.7497 68.1827 78.7497C74.6505 78.7497 79.5954 74.1691 79.5954 68.5281C79.5954 62.8871 74.4803 58.3066 68.1827 58.3066C61.8851 58.3066 54.8977 65.0348 50.2573 68.5371L50.2215 68.5727L50.2394 68.5638Z" fill="#EDEDED"/>
</svg>
