<svg width="101" height="100" viewBox="0 0 101 100" fill="none" xmlns="http://www.w3.org/2000/svg">
<path d="M13.5252 49.7178L13.8428 49.6557C22.1012 40.6921 35.3004 37.1368 48.4026 39.974L48.8261 40.7631C44.7234 53.5745 35.0533 63.274 23.204 65.9782L22.9923 66.2176L50.1142 97.4971L77.2362 66.2176L77.0244 65.9782C65.1663 63.274 55.5051 53.5657 51.4024 40.7453L51.87 39.9828C64.9633 37.1546 78.1538 40.7099 86.4121 49.6735L86.7297 49.7355L100.123 10.4943H100.114V10.4765L59.599 2.5148L59.4931 2.81625C63.0929 14.484 59.5548 27.7477 50.5642 37.7309L49.6731 37.7043C40.6824 27.7299 37.1532 14.4663 40.753 2.79852L40.6471 2.49707L0.131872 10.4588L0.123047 10.4765L13.5164 49.7178H13.5252Z" fill="#EDEDED"/>
</svg>
