<svg width="24" height="25" viewBox="0 0 24 25" fill="none" xmlns="http://www.w3.org/2000/svg">
<path d="M12 23.1436C6.21 23.1436 1.5 18.4336 1.5 12.6436C1.5 6.85355 6.21 2.14355 12 2.14355C17.79 2.14355 22.5 6.85355 22.5 12.6436C22.5 18.4336 17.79 23.1436 12 23.1436ZM12 3.64355C7.035 3.64355 3 7.67855 3 12.6436C3 17.6086 7.035 21.6436 12 21.6436C16.965 21.6436 21 17.6086 21 12.6436C21 7.67855 16.965 3.64355 12 3.64355Z" fill="#ADADAD"/>
<path d="M15 16.3936C14.865 16.3936 14.73 16.3636 14.61 16.2886L10.86 14.0386C10.7494 13.9712 10.6582 13.8765 10.5951 13.7634C10.532 13.6504 10.4992 13.523 10.5 13.3936V7.39355C10.5 6.97355 10.83 6.64355 11.25 6.64355C11.67 6.64355 12 6.97355 12 7.39355V12.9736L15.39 14.9986C15.5296 15.0841 15.6376 15.2129 15.6974 15.3653C15.7573 15.5178 15.7658 15.6856 15.7217 15.8433C15.6776 16.001 15.5833 16.1401 15.4531 16.2394C15.3228 16.3387 15.1638 16.3928 15 16.3936Z" fill="#ADADAD"/>
</svg>
